<svg xmlns="http://www.w3.org/2000/svg" xmlns:xlink="http://www.w3.org/1999/xlink" viewBox="0 0 500 500"><defs><clipPath id="freepik--clip-path--inject-2"><rect x="108.77" y="145.02" width="292.05" height="210.92" style="fill:#fff;stroke:#263238;stroke-linecap:round;stroke-linejoin:round"></rect></clipPath><clipPath id="freepik--clip-path-2--inject-2"><rect x="332.48" y="276.35" width="60.39" height="79.24" style="fill:none"></rect></clipPath><clipPath id="freepik--clip-path-3--inject-2"><rect x="261.7" y="276.35" width="60.39" height="79.24" style="fill:none"></rect></clipPath><clipPath id="freepik--clip-path-4--inject-2"><rect x="182.46" y="275.97" width="60.39" height="79.63" style="fill:none"></rect></clipPath><clipPath id="freepik--clip-path-5--inject-2"><rect x="121.68" y="276.35" width="53.47" height="79.24" style="fill:none"></rect></clipPath></defs><g id="freepik--background-simple--inject-2"><path d="M387,130.86s-42.69-44.11-110.28-42-125.23,44.83-172.9,78.27S43.35,252.53,71.1,293.08s71.86,23.48,128.06,49.8S266,384.15,328.65,377.75s110.29-71.86,103.17-141.59S387,130.86,387,130.86Z" style="fill:#407BFF"></path><path d="M387,130.86s-42.69-44.11-110.28-42-125.23,44.83-172.9,78.27S43.35,252.53,71.1,293.08s71.86,23.48,128.06,49.8S266,384.15,328.65,377.75s110.29-71.86,103.17-141.59S387,130.86,387,130.86Z" style="fill:#fff;opacity:0.7000000000000001"></path></g><g id="freepik--Shadow--inject-2"><path d="M403.36,399.3c0,2.94-66,5.31-147.33,5.31s-147.34-2.37-147.34-5.31,66-5.3,147.34-5.3S403.36,396.37,403.36,399.3Z" style="fill:#407BFF"></path><path d="M403.36,399.3c0,2.94-66,5.31-147.33,5.31s-147.34-2.37-147.34-5.31,66-5.3,147.34-5.3S403.36,396.37,403.36,399.3Z" style="fill:#fff;opacity:0.6000000000000001"></path></g><g id="freepik--Plants--inject-2"><path d="M116.67,233.78c.06,0-.69-3.73-.77-4-.86-2.66-4.09-7.3-7.23-7.3a3.72,3.72,0,0,0-3.57,4.22c.23,2.2,2.21,4.08,4,5.16C111.2,233.17,116.67,233.78,116.67,233.78Z" style="fill:#407BFF"></path><path d="M122.74,208.66c-2.95,1.06-4.41,6.52-4.32,9.32,0,.24.56,4,.62,4l.06,0c-.24.86-.49,1.78-.74,2.8-.44,1.88-.92,4-1.29,6.36a65.63,65.63,0,0,0-.84,7.64,49.24,49.24,0,0,0,.29,8.6.44.44,0,0,1,0,.1c-.38-.83-1.54-3.12-1.65-3.29-1.54-2.34-5.88-6-8.91-5.13a3.71,3.71,0,0,0-2.32,5c.8,2.07,3.2,3.35,5.21,3.93,2.27.64,7.33-.12,7.73-.18a67.33,67.33,0,0,0,1.86,8.56c.47,1.64,1,3.28,1.52,4.91-.35-.71-.68-1.34-.73-1.42-1.54-2.34-5.88-6-8.91-5.13a3.71,3.71,0,0,0-2.32,5c.8,2.06,3.2,3.35,5.21,3.92s6.37,0,7.51-.14c.21.62.42,1.25.64,1.87,1,3,2.08,6,3,8.94.33,1,.61,2.08.9,3.12-.31-.63-.59-1.16-.64-1.23-1.53-2.35-5.88-6-8.9-5.13a3.71,3.71,0,0,0-2.33,5c.8,2.06,3.21,3.35,5.22,3.92s5.94.07,7.3-.12c.27,1.07.54,2.15.75,3.2.12.72.29,1.4.38,2.14l.3,2.14c.14,1.37.3,2.78.4,4.12.08.94.14,1.83.2,2.72-.31-1-1-3.07-1-3.23a14.41,14.41,0,0,0-4.8-5.46,5.07,5.07,0,0,0-.4-.72,3.72,3.72,0,0,0-5.46-.85c-2.37,2.05-1.78,7.67-.69,10.25.06.15,1,1.73,1.52,2.71l-1.27-1.58c-.88-1.07-1.78-2.11-2.74-3.23q-.74-.78-1.47-1.59c-.48-.54-1.05-1.05-1.58-1.59-1.26-1.21-2.59-2.38-4-3.52.94-.77,4.21-3.53,5.15-5.41s1.61-4.51.63-6.5a3.71,3.71,0,0,0-5.26-1.66c-2.66,1.66-2.93,7.31-2.24,10,0,.17.76,2.07,1.17,3.1-.83-.69-1.65-1.37-2.51-2-2.48-1.91-5-3.77-7.6-5.64l-2.33-1.73c.33-.27,4.29-3.47,5.35-5.58.94-1.87,1.61-4.51.63-6.49a3.71,3.71,0,0,0-5.27-1.67c-2.65,1.67-2.92,7.31-2.23,10,.05.2,1.08,2.92,1.38,3.6-1.71-1.27-3.4-2.55-5-3.88a66,66,0,0,1-6.2-5.78c.15-.12,4.3-3.45,5.38-5.6.94-1.87,1.61-4.51.63-6.5A3.71,3.71,0,0,0,82.48,252c-2.66,1.67-2.92,7.32-2.24,10,.05.18.83,2.26,1.23,3.23l-.15.1a48,48,0,0,1-5.1-6.84c-.83-1.32-1.56-2.64-2.24-3.93.84-.54,4.63-3,5.82-4.88s2.1-4.31,1.34-6.39a3.71,3.71,0,0,0-5-2.23c-2.82,1.36-3.71,7-3.32,9.72,0,.15.4,1.66.7,2.75-.3-.58-.62-1.19-.89-1.76-1-2.13-1.85-4.15-2.55-5.94-.39-1-.73-2-1-2.84.54-.95,2.69-4.84,2.89-7s-.12-4.79-1.75-6.29a3.72,3.72,0,0,0-5.52.34c-1.87,2.51-.08,7.88,1.54,10.16.14.2,2.68,3,2.71,3l0-.06c.28.85.58,1.75.94,2.74.67,1.81,1.44,3.85,2.43,6a65.73,65.73,0,0,0,3.52,6.84,48.53,48.53,0,0,0,5,7l.07.07c-.78-.48-3-1.75-3.19-1.83-2.57-1.11-8.2-1.73-10.26.63a3.71,3.71,0,0,0,.83,5.46c1.8,1.28,4.52,1,6.51.4,2.25-.71,6-4.14,6.35-4.41a66.15,66.15,0,0,0,6.28,6.11c1.29,1.11,2.62,2.19,4,3.26-.69-.39-1.31-.74-1.4-.78-2.57-1.11-8.19-1.73-10.25.63a3.7,3.7,0,0,0,.82,5.46c1.81,1.28,4.52,1,6.52.4s5.31-3.5,6.18-4.27l1.56,1.22c2.52,1.93,5,3.84,7.45,5.79.85.69,1.66,1.39,2.48,2.1-.61-.35-1.13-.64-1.22-.68-2.57-1.1-8.19-1.73-10.25.64a3.7,3.7,0,0,0,.82,5.46c1.81,1.28,4.52,1,6.52.39s5-3.22,6-4.12c.81.74,1.63,1.49,2.39,2.25.5.53,1,1,1.5,1.57l1.43,1.63c.88,1.06,1.78,2.15,2.61,3.21.58.74,1.12,1.45,1.67,2.16-.84-.69-2.51-2-2.67-2.11-2.37-1.49-7.83-2.95-10.23-.93a3.71,3.71,0,0,0,0,5.52c1.59,1.54,4.31,1.7,6.38,1.38,2.27-.35,6.39-3,6.9-3.37.9,1.18,1.76,2.34,2.56,3.44,2.77,3.83,4.93,7.13,6.41,9.45l.15.24,1.92-.93-.3-.46c-1.55-2.31-3.8-5.59-6.69-9.4-.9-1.21-1.9-2.47-2.93-3.77a41.25,41.25,0,0,0,3-3.68c2.2.86,6.79.89,7.38.89.1,1.49.18,2.93.23,4.29.2,4.73.18,8.67.14,11.42,0,.11,0,.21,0,.32l2.11-1c0-2.74-.11-6.44-.38-10.82-.1-1.5-.23-3.11-.37-4.76.58-.14,5.35-1.37,7.15-2.81,1.64-1.3,3.36-3.42,3.3-5.63a3.71,3.71,0,0,0-4.08-3.72c-3.12.4-5.72,5.41-6.23,8.17,0,.16-.17,2-.23,3.09-.06-.67-.12-1.32-.19-2-.14-1.37-.32-2.73-.5-4.2-.12-.7-.24-1.42-.35-2.14s-.3-1.46-.45-2.19c-.38-1.71-.84-3.42-1.35-5.13,1.2-.12,5.46-.62,7.28-1.67s3.83-2.87,4.11-5.07a3.71,3.71,0,0,0-3.47-4.29c-3.14-.08-6.48,4.48-7.4,7.13-.06.16-.51,2.13-.73,3.22-.32-1-.62-2.05-1-3.08-1-3-2.13-5.93-3.23-8.9l-1-2.73c.43,0,5.5-.52,7.54-1.7,1.81-1,3.83-2.87,4.11-5.07a3.7,3.7,0,0,0-3.47-4.29c-3.14-.08-6.48,4.49-7.4,7.13-.07.2-.71,3-.84,3.77-.72-2-1.42-4-2-6a68.9,68.9,0,0,1-2-8.24c.2,0,5.5-.5,7.59-1.7,1.81-1.05,3.83-2.88,4.11-5.08a3.71,3.71,0,0,0-3.48-4.29c-3.13-.08-6.47,4.49-7.39,7.13-.06.17-.55,2.34-.76,3.37h-.18a47.81,47.81,0,0,1-.48-8.51c0-1.56.15-3.06.3-4.51,1,0,5.55,0,7.55-.86s4.12-2.44,4.64-4.59a3.71,3.71,0,0,0-3-4.65c-3.11-.42-6.93,3.75-8.13,6.27-.07.14-.58,1.61-.94,2.69.07-.66.14-1.33.23-2,.32-2.35.75-4.48,1.15-6.37.24-1.07.47-2,.7-2.93,1-.5,4.92-2.55,6.27-4.22s2.53-4.06,2-6.21A3.71,3.71,0,0,0,122.74,208.66Z" style="fill:#407BFF"></path><path d="M66.06,257c2.45-.1,7.35-2.62,7.36-2.62s-2.64-2.72-2.83-2.88c-2.19-1.74-7.45-3.83-10.06-2.09a3.71,3.71,0,0,0-.65,5.48C61.29,256.6,64,257.08,66.06,257Z" style="fill:#407BFF"></path><g style="opacity:0.5"><path d="M116.67,233.78c.06,0-.69-3.73-.77-4-.86-2.66-4.09-7.3-7.23-7.3a3.72,3.72,0,0,0-3.57,4.22c.23,2.2,2.21,4.08,4,5.16C111.2,233.17,116.67,233.78,116.67,233.78Z" style="fill:#fff"></path><path d="M122.74,208.66c-2.95,1.06-4.41,6.52-4.32,9.32,0,.24.56,4,.62,4l.06,0c-.24.86-.49,1.78-.74,2.8-.44,1.88-.92,4-1.29,6.36a65.63,65.63,0,0,0-.84,7.64,49.24,49.24,0,0,0,.29,8.6.44.44,0,0,1,0,.1c-.38-.83-1.54-3.12-1.65-3.29-1.54-2.34-5.88-6-8.91-5.13a3.71,3.71,0,0,0-2.32,5c.8,2.07,3.2,3.35,5.21,3.93,2.27.64,7.33-.12,7.73-.18a67.33,67.33,0,0,0,1.86,8.56c.47,1.64,1,3.28,1.52,4.91-.35-.71-.68-1.34-.73-1.42-1.54-2.34-5.88-6-8.91-5.13a3.71,3.71,0,0,0-2.32,5c.8,2.06,3.2,3.35,5.21,3.92s6.37,0,7.51-.14c.21.62.42,1.25.64,1.87,1,3,2.08,6,3,8.94.33,1,.61,2.08.9,3.12-.31-.63-.59-1.16-.64-1.23-1.53-2.35-5.88-6-8.9-5.13a3.71,3.71,0,0,0-2.33,5c.8,2.06,3.21,3.35,5.22,3.92s5.94.07,7.3-.12c.27,1.07.54,2.15.75,3.2.12.72.29,1.4.38,2.14l.3,2.14c.14,1.37.3,2.78.4,4.12.08.94.14,1.83.2,2.72-.31-1-1-3.07-1-3.23a14.41,14.41,0,0,0-4.8-5.46,5.07,5.07,0,0,0-.4-.72,3.72,3.72,0,0,0-5.46-.85c-2.37,2.05-1.78,7.67-.69,10.25.06.15,1,1.73,1.52,2.71l-1.27-1.58c-.88-1.07-1.78-2.11-2.74-3.23q-.74-.78-1.47-1.59c-.48-.54-1.05-1.05-1.58-1.59-1.26-1.21-2.59-2.38-4-3.52.94-.77,4.21-3.53,5.15-5.41s1.61-4.51.63-6.5a3.71,3.71,0,0,0-5.26-1.66c-2.66,1.66-2.93,7.31-2.24,10,0,.17.76,2.07,1.17,3.1-.83-.69-1.65-1.37-2.51-2-2.48-1.91-5-3.77-7.6-5.64l-2.33-1.73c.33-.27,4.29-3.47,5.35-5.58.94-1.87,1.61-4.51.63-6.49a3.71,3.71,0,0,0-5.27-1.67c-2.65,1.67-2.92,7.31-2.23,10,.05.2,1.08,2.92,1.38,3.6-1.71-1.27-3.4-2.55-5-3.88a66,66,0,0,1-6.2-5.78c.15-.12,4.3-3.45,5.38-5.6.94-1.87,1.61-4.51.63-6.5A3.71,3.71,0,0,0,82.48,252c-2.66,1.67-2.92,7.32-2.24,10,.05.18.83,2.26,1.23,3.23l-.15.1a48,48,0,0,1-5.1-6.84c-.83-1.32-1.56-2.64-2.24-3.93.84-.54,4.63-3,5.82-4.88s2.1-4.31,1.34-6.39a3.71,3.71,0,0,0-5-2.23c-2.82,1.36-3.71,7-3.32,9.72,0,.15.4,1.66.7,2.75-.3-.58-.62-1.19-.89-1.76-1-2.13-1.85-4.15-2.55-5.94-.39-1-.73-2-1-2.84.54-.95,2.69-4.84,2.89-7s-.12-4.79-1.75-6.29a3.72,3.72,0,0,0-5.52.34c-1.87,2.51-.08,7.88,1.54,10.16.14.2,2.68,3,2.71,3l0-.06c.28.85.58,1.75.94,2.74.67,1.81,1.44,3.85,2.43,6a65.73,65.73,0,0,0,3.52,6.84,48.53,48.53,0,0,0,5,7l.07.07c-.78-.48-3-1.75-3.19-1.83-2.57-1.11-8.2-1.73-10.26.63a3.71,3.71,0,0,0,.83,5.46c1.8,1.28,4.52,1,6.51.4,2.25-.71,6-4.14,6.35-4.41a66.15,66.15,0,0,0,6.28,6.11c1.29,1.11,2.62,2.19,4,3.26-.69-.39-1.31-.74-1.4-.78-2.57-1.11-8.19-1.73-10.25.63a3.7,3.7,0,0,0,.82,5.46c1.81,1.28,4.52,1,6.52.4s5.31-3.5,6.18-4.27l1.56,1.22c2.52,1.93,5,3.84,7.45,5.79.85.69,1.66,1.39,2.48,2.1-.61-.35-1.13-.64-1.22-.68-2.57-1.1-8.19-1.73-10.25.64a3.7,3.7,0,0,0,.82,5.46c1.81,1.28,4.52,1,6.52.39s5-3.22,6-4.12c.81.74,1.63,1.49,2.39,2.25.5.53,1,1,1.5,1.57l1.43,1.63c.88,1.06,1.78,2.15,2.61,3.21.58.74,1.12,1.45,1.67,2.16-.84-.69-2.51-2-2.67-2.11-2.37-1.49-7.83-2.95-10.23-.93a3.71,3.71,0,0,0,0,5.52c1.59,1.54,4.31,1.7,6.38,1.38,2.27-.35,6.39-3,6.9-3.37.9,1.18,1.76,2.34,2.56,3.44,2.77,3.83,4.93,7.13,6.41,9.45l.15.24,1.92-.93-.3-.46c-1.55-2.31-3.8-5.59-6.69-9.4-.9-1.21-1.9-2.47-2.93-3.77a41.25,41.25,0,0,0,3-3.68c2.2.86,6.79.89,7.38.89.1,1.49.18,2.93.23,4.29.2,4.73.18,8.67.14,11.42,0,.11,0,.21,0,.32l2.11-1c0-2.74-.11-6.44-.38-10.82-.1-1.5-.23-3.11-.37-4.76.58-.14,5.35-1.37,7.15-2.81,1.64-1.3,3.36-3.42,3.3-5.63a3.71,3.71,0,0,0-4.08-3.72c-3.12.4-5.72,5.41-6.23,8.17,0,.16-.17,2-.23,3.09-.06-.67-.12-1.32-.19-2-.14-1.37-.32-2.73-.5-4.2-.12-.7-.24-1.42-.35-2.14s-.3-1.46-.45-2.19c-.38-1.71-.84-3.42-1.35-5.13,1.2-.12,5.46-.62,7.28-1.67s3.83-2.87,4.11-5.07a3.71,3.71,0,0,0-3.47-4.29c-3.14-.08-6.48,4.48-7.4,7.13-.06.16-.51,2.13-.73,3.22-.32-1-.62-2.05-1-3.08-1-3-2.13-5.93-3.23-8.9l-1-2.73c.43,0,5.5-.52,7.54-1.7,1.81-1,3.83-2.87,4.11-5.07a3.7,3.7,0,0,0-3.47-4.29c-3.14-.08-6.48,4.49-7.4,7.13-.07.2-.71,3-.84,3.77-.72-2-1.42-4-2-6a68.9,68.9,0,0,1-2-8.24c.2,0,5.5-.5,7.59-1.7,1.81-1.05,3.83-2.88,4.11-5.08a3.71,3.71,0,0,0-3.48-4.29c-3.13-.08-6.47,4.49-7.39,7.13-.06.17-.55,2.34-.76,3.37h-.18a47.81,47.81,0,0,1-.48-8.51c0-1.56.15-3.06.3-4.51,1,0,5.55,0,7.55-.86s4.12-2.44,4.64-4.59a3.71,3.71,0,0,0-3-4.65c-3.11-.42-6.93,3.75-8.13,6.27-.07.14-.58,1.61-.94,2.69.07-.66.14-1.33.23-2,.32-2.35.75-4.48,1.15-6.37.24-1.07.47-2,.7-2.93,1-.5,4.92-2.55,6.27-4.22s2.53-4.06,2-6.21A3.71,3.71,0,0,0,122.74,208.66Z" style="fill:#fff"></path><path d="M66.06,257c2.45-.1,7.35-2.62,7.36-2.62s-2.64-2.72-2.83-2.88c-2.19-1.74-7.45-3.83-10.06-2.09a3.71,3.71,0,0,0-.65,5.48C61.29,256.6,64,257.08,66.06,257Z" style="fill:#fff"></path></g><path d="M94.67,318.35s14.87-35.84,23.19-34.28-14.27,57.14-14.27,57.14,26.16-49.35,44-49.35-6.54,54.54-29.13,72.72c0,0,35.67-38.44,56.49-30.12s-41.63,47.27-41.63,47.27,36.27-11.43,32.11-2.6S150,389.52,150,389.52l41,2.08H48.29l32.11-3.12S47.1,371.86,56,365.1s28.54,7.79,28.54,7.79-33.89-37.4-27.35-51.42,35.68,25.45,35.68,25.45-23.79-50.38-19-59.22S94.67,318.35,94.67,318.35Z" style="fill:#407BFF"></path><path d="M94.67,318.35s14.87-35.84,23.19-34.28-14.27,57.14-14.27,57.14,26.16-49.35,44-49.35-6.54,54.54-29.13,72.72c0,0,35.67-38.44,56.49-30.12s-41.63,47.27-41.63,47.27,36.27-11.43,32.11-2.6S150,389.52,150,389.52l41,2.08H48.29l32.11-3.12S47.1,371.86,56,365.1s28.54,7.79,28.54,7.79-33.89-37.4-27.35-51.42,35.68,25.45,35.68,25.45-23.79-50.38-19-59.22S94.67,318.35,94.67,318.35Z" style="fill:#fff;opacity:0.4"></path><path d="M89.92,320.24c13.08,38.65,13.08,66,13.08,66s-15.46.6-31.52-11.29" style="fill:none;stroke:#263238;stroke-linecap:round;stroke-linejoin:round"></path><path d="M96.46,341.05a231.27,231.27,0,0,1,10.7-33.89" style="fill:none;stroke:#263238;stroke-linecap:round;stroke-linejoin:round"></path><path d="M135.11,318.46l-33.3,49.35s-22.6-19-30.33-29.73" style="fill:none;stroke:#263238;stroke-linecap:round;stroke-linejoin:round"></path><path d="M102.4,379.7s35.08-16.65,49.36-26.16" style="fill:none;stroke:#263238;stroke-linecap:round;stroke-linejoin:round"></path><path d="M394.62,233.78c-.06,0,.7-3.73.77-4,.86-2.66,4.1-7.3,7.23-7.3a3.72,3.72,0,0,1,3.57,4.22c-.23,2.2-2.21,4.08-4,5.16C400.09,233.17,394.62,233.78,394.62,233.78Z" style="fill:#407BFF"></path><path d="M388.55,208.66c2.95,1.06,4.42,6.52,4.32,9.32,0,.24-.56,4-.61,4l-.06,0c.23.86.48,1.78.73,2.8.44,1.88.92,4,1.29,6.36a65.63,65.63,0,0,1,.84,7.64,48.28,48.28,0,0,1-.29,8.6.44.44,0,0,0,0,.1c.39-.83,1.55-3.12,1.65-3.29,1.54-2.34,5.88-6,8.91-5.13a3.7,3.7,0,0,1,2.32,5c-.8,2.07-3.2,3.35-5.21,3.93-2.27.64-7.33-.12-7.73-.18a65.64,65.64,0,0,1-1.86,8.56q-.7,2.46-1.52,4.91c.35-.71.68-1.34.73-1.42,1.54-2.34,5.89-6,8.91-5.13a3.7,3.7,0,0,1,2.32,5c-.8,2.06-3.2,3.35-5.21,3.92s-6.37,0-7.51-.14l-.63,1.87c-1,3-2.09,6-3,8.94-.33,1-.62,2.08-.91,3.12.32-.63.59-1.16.64-1.23,1.54-2.35,5.88-6,8.9-5.13a3.71,3.71,0,0,1,2.33,5c-.8,2.06-3.21,3.35-5.22,3.92s-5.94.07-7.3-.12c-.27,1.07-.53,2.15-.74,3.2-.13.72-.3,1.4-.39,2.14l-.3,2.14c-.14,1.37-.3,2.78-.4,4.12-.08.94-.14,1.83-.2,2.72.32-1,1-3.07,1.05-3.23a14.5,14.5,0,0,1,4.8-5.46,4.3,4.3,0,0,1,.41-.72,3.7,3.7,0,0,1,5.45-.85c2.38,2.05,1.78,7.67.69,10.25-.06.15-.95,1.73-1.52,2.71.43-.53.83-1,1.28-1.58.87-1.07,1.77-2.11,2.73-3.23l1.47-1.59c.48-.54,1.06-1.05,1.59-1.59,1.25-1.21,2.58-2.38,3.95-3.52-.93-.77-4.21-3.53-5.15-5.41s-1.61-4.51-.63-6.5a3.71,3.71,0,0,1,5.27-1.66c2.65,1.66,2.92,7.31,2.23,10,0,.17-.76,2.07-1.17,3.1.83-.69,1.65-1.37,2.51-2,2.48-1.91,5.05-3.77,7.6-5.64l2.33-1.73c-.33-.27-4.29-3.47-5.35-5.58-.93-1.87-1.61-4.51-.63-6.49a3.71,3.71,0,0,1,5.27-1.67c2.66,1.67,2.92,7.31,2.23,10-.05.2-1.08,2.92-1.37,3.6,1.7-1.27,3.39-2.55,5-3.88a66,66,0,0,0,6.2-5.78c-.15-.12-4.3-3.45-5.38-5.6-.94-1.87-1.61-4.51-.63-6.5a3.71,3.71,0,0,1,5.26-1.67c2.66,1.67,2.93,7.32,2.24,10-.05.18-.83,2.26-1.22,3.23a.78.78,0,0,0,.15.1,47.88,47.88,0,0,0,5.09-6.84c.84-1.32,1.56-2.64,2.24-3.93-.84-.54-4.63-3-5.82-4.88s-2.09-4.31-1.34-6.39a3.71,3.71,0,0,1,5.05-2.23c2.83,1.36,3.71,7,3.32,9.72,0,.15-.4,1.66-.69,2.75.29-.58.61-1.19.88-1.76,1-2.13,1.85-4.15,2.55-5.94.4-1,.73-2,1-2.84-.55-.95-2.69-4.84-2.9-7s.13-4.79,1.76-6.29a3.71,3.71,0,0,1,5.51.34c1.88,2.51.09,7.88-1.53,10.16-.14.2-2.69,3-2.72,3l0-.06c-.28.85-.58,1.75-.94,2.74-.66,1.81-1.43,3.85-2.42,6a67.92,67.92,0,0,1-3.53,6.84,48.53,48.53,0,0,1-5,7l-.07.07c.78-.48,3-1.75,3.19-1.83,2.58-1.11,8.2-1.73,10.26.63a3.71,3.71,0,0,1-.82,5.46c-1.81,1.28-4.52,1-6.52.4-2.25-.71-6-4.14-6.34-4.41a66.15,66.15,0,0,1-6.28,6.11c-1.29,1.11-2.63,2.19-4,3.26.69-.39,1.31-.74,1.4-.78,2.57-1.11,8.19-1.73,10.25.63a3.7,3.7,0,0,1-.82,5.46c-1.8,1.28-4.52,1-6.51.4s-5.32-3.5-6.18-4.27c-.53.41-1,.82-1.57,1.22-2.51,1.93-5,3.84-7.45,5.79-.85.69-1.66,1.39-2.48,2.1l1.22-.68c2.57-1.1,8.19-1.73,10.25.64a3.7,3.7,0,0,1-.82,5.46c-1.81,1.28-4.52,1-6.51.39s-5-3.22-6-4.12c-.81.74-1.63,1.49-2.38,2.25-.51.53-1,1-1.5,1.57l-1.44,1.63c-.87,1.06-1.78,2.15-2.61,3.21-.58.74-1.12,1.45-1.66,2.16.83-.69,2.51-2,2.66-2.11,2.37-1.49,7.84-2.95,10.23-.93a3.71,3.71,0,0,1,0,5.52c-1.6,1.54-4.32,1.7-6.38,1.38-2.28-.35-6.4-3-6.91-3.37-.9,1.18-1.76,2.34-2.56,3.44-2.77,3.83-4.93,7.13-6.41,9.45,0,.09-.1.16-.15.24l-1.92-.93.3-.46c1.55-2.31,3.81-5.59,6.69-9.4.91-1.21,1.9-2.47,2.93-3.77a40,40,0,0,1-3-3.68c-2.21.86-6.79.89-7.39.89-.09,1.49-.17,2.93-.23,4.29-.2,4.73-.18,8.67-.13,11.42v.32l-2.11-1c0-2.74.11-6.44.39-10.82.09-1.5.22-3.11.37-4.76-.59-.14-5.36-1.37-7.16-2.81-1.63-1.3-3.35-3.42-3.29-5.63a3.7,3.7,0,0,1,4.08-3.72c3.11.4,5.72,5.41,6.23,8.17,0,.16.16,2,.22,3.09.07-.67.12-1.32.2-2,.13-1.37.31-2.73.5-4.2.11-.7.23-1.42.34-2.14s.3-1.46.45-2.19c.38-1.71.84-3.42,1.35-5.13-1.2-.12-5.45-.62-7.28-1.67s-3.83-2.87-4.1-5.07a3.7,3.7,0,0,1,3.47-4.29c3.13-.08,6.47,4.48,7.39,7.13.06.16.51,2.13.73,3.22.32-1,.62-2.05,1-3.08,1-3,2.13-5.93,3.23-8.9.34-.91.66-1.82,1-2.73-.43,0-5.5-.52-7.54-1.7-1.81-1-3.83-2.87-4.11-5.07a3.71,3.71,0,0,1,3.47-4.29c3.14-.08,6.48,4.49,7.4,7.13.07.2.71,3,.84,3.77.72-2,1.43-4,2-6a65.26,65.26,0,0,0,2-8.24c-.2,0-5.49-.5-7.58-1.7-1.82-1.05-3.84-2.88-4.11-5.08a3.7,3.7,0,0,1,3.47-4.29c3.13-.08,6.47,4.49,7.39,7.13.06.17.56,2.34.77,3.37h.17a47.81,47.81,0,0,0,.48-8.51c0-1.56-.15-3.06-.3-4.51-1,0-5.54,0-7.54-.86s-4.13-2.44-4.65-4.59a3.71,3.71,0,0,1,3-4.65c3.11-.42,6.93,3.75,8.14,6.27.06.14.58,1.61.93,2.69-.07-.66-.14-1.33-.23-2-.31-2.35-.75-4.48-1.15-6.37-.24-1.07-.47-2-.7-2.93-1-.5-4.92-2.55-6.26-4.22s-2.54-4.06-2-6.21A3.71,3.71,0,0,1,388.55,208.66Z" style="fill:#407BFF"></path><path d="M445.23,257c-2.45-.1-7.35-2.62-7.35-2.62s2.63-2.72,2.82-2.88c2.19-1.74,7.45-3.83,10.06-2.09a3.7,3.7,0,0,1,.65,5.48C450,256.6,447.32,257.08,445.23,257Z" style="fill:#407BFF"></path><g style="opacity:0.5"><path d="M394.62,233.78c-.06,0,.7-3.73.77-4,.86-2.66,4.1-7.3,7.23-7.3a3.72,3.72,0,0,1,3.57,4.22c-.23,2.2-2.21,4.08-4,5.16C400.09,233.17,394.62,233.78,394.62,233.78Z" style="fill:#fff"></path><path d="M388.55,208.66c2.95,1.06,4.42,6.52,4.32,9.32,0,.24-.56,4-.61,4l-.06,0c.23.86.48,1.78.73,2.8.44,1.88.92,4,1.29,6.36a65.63,65.63,0,0,1,.84,7.64,48.28,48.28,0,0,1-.29,8.6.44.44,0,0,0,0,.1c.39-.83,1.55-3.12,1.65-3.29,1.54-2.34,5.88-6,8.91-5.13a3.7,3.7,0,0,1,2.32,5c-.8,2.07-3.2,3.35-5.21,3.93-2.27.64-7.33-.12-7.73-.18a65.64,65.64,0,0,1-1.86,8.56q-.7,2.46-1.52,4.91c.35-.71.68-1.34.73-1.42,1.54-2.34,5.89-6,8.91-5.13a3.7,3.7,0,0,1,2.32,5c-.8,2.06-3.2,3.35-5.21,3.92s-6.37,0-7.51-.14l-.63,1.87c-1,3-2.09,6-3,8.94-.33,1-.62,2.08-.91,3.12.32-.63.59-1.16.64-1.23,1.54-2.35,5.88-6,8.9-5.13a3.71,3.71,0,0,1,2.33,5c-.8,2.06-3.21,3.35-5.22,3.92s-5.94.07-7.3-.12c-.27,1.07-.53,2.15-.74,3.2-.13.72-.3,1.4-.39,2.14l-.3,2.14c-.14,1.37-.3,2.78-.4,4.12-.08.94-.14,1.83-.2,2.72.32-1,1-3.07,1.05-3.23a14.5,14.5,0,0,1,4.8-5.46,4.3,4.3,0,0,1,.41-.72,3.7,3.7,0,0,1,5.45-.85c2.38,2.05,1.78,7.67.69,10.25-.06.15-.95,1.73-1.52,2.71.43-.53.83-1,1.28-1.58.87-1.07,1.77-2.11,2.73-3.23l1.47-1.59c.48-.54,1.06-1.05,1.59-1.59,1.25-1.21,2.58-2.38,3.95-3.52-.93-.77-4.21-3.53-5.15-5.41s-1.61-4.51-.63-6.5a3.71,3.71,0,0,1,5.27-1.66c2.65,1.66,2.92,7.31,2.23,10,0,.17-.76,2.07-1.17,3.1.83-.69,1.65-1.37,2.51-2,2.48-1.91,5.05-3.77,7.6-5.64l2.33-1.73c-.33-.27-4.29-3.47-5.35-5.58-.93-1.87-1.61-4.51-.63-6.49a3.71,3.71,0,0,1,5.27-1.67c2.66,1.67,2.92,7.31,2.23,10-.05.2-1.08,2.92-1.37,3.6,1.7-1.27,3.39-2.55,5-3.88a66,66,0,0,0,6.2-5.78c-.15-.12-4.3-3.45-5.38-5.6-.94-1.87-1.61-4.51-.63-6.5a3.71,3.71,0,0,1,5.26-1.67c2.66,1.67,2.93,7.32,2.24,10-.05.18-.83,2.26-1.22,3.23a.78.78,0,0,0,.15.1,47.88,47.88,0,0,0,5.09-6.84c.84-1.32,1.56-2.64,2.24-3.93-.84-.54-4.63-3-5.82-4.88s-2.09-4.31-1.34-6.39a3.71,3.71,0,0,1,5.05-2.23c2.83,1.36,3.71,7,3.32,9.72,0,.15-.4,1.66-.69,2.75.29-.58.61-1.19.88-1.76,1-2.13,1.85-4.15,2.55-5.94.4-1,.73-2,1-2.84-.55-.95-2.69-4.84-2.9-7s.13-4.79,1.76-6.29a3.71,3.71,0,0,1,5.51.34c1.88,2.51.09,7.88-1.53,10.16-.14.2-2.69,3-2.72,3l0-.06c-.28.85-.58,1.75-.94,2.74-.66,1.81-1.43,3.85-2.42,6a67.92,67.92,0,0,1-3.53,6.84,48.53,48.53,0,0,1-5,7l-.07.07c.78-.48,3-1.75,3.19-1.83,2.58-1.11,8.2-1.73,10.26.63a3.71,3.71,0,0,1-.82,5.46c-1.81,1.28-4.52,1-6.52.4-2.25-.71-6-4.14-6.34-4.41a66.15,66.15,0,0,1-6.28,6.11c-1.29,1.11-2.63,2.19-4,3.26.69-.39,1.31-.74,1.4-.78,2.57-1.11,8.19-1.73,10.25.63a3.7,3.7,0,0,1-.82,5.46c-1.8,1.28-4.52,1-6.51.4s-5.32-3.5-6.18-4.27c-.53.41-1,.82-1.57,1.22-2.51,1.93-5,3.84-7.45,5.79-.85.69-1.66,1.39-2.48,2.1l1.22-.68c2.57-1.1,8.19-1.73,10.25.64a3.7,3.7,0,0,1-.82,5.46c-1.81,1.28-4.52,1-6.51.39s-5-3.22-6-4.12c-.81.74-1.63,1.49-2.38,2.25-.51.53-1,1-1.5,1.57l-1.44,1.63c-.87,1.06-1.78,2.15-2.61,3.21-.58.74-1.12,1.45-1.66,2.16.83-.69,2.51-2,2.66-2.11,2.37-1.49,7.84-2.95,10.23-.93a3.71,3.71,0,0,1,0,5.52c-1.6,1.54-4.32,1.7-6.38,1.38-2.28-.35-6.4-3-6.91-3.37-.9,1.18-1.76,2.34-2.56,3.44-2.77,3.83-4.93,7.13-6.41,9.45,0,.09-.1.16-.15.24l-1.92-.93.3-.46c1.55-2.31,3.81-5.59,6.69-9.4.91-1.21,1.9-2.47,2.93-3.77a40,40,0,0,1-3-3.68c-2.21.86-6.79.89-7.39.89-.09,1.49-.17,2.93-.23,4.29-.2,4.73-.18,8.67-.13,11.42v.32l-2.11-1c0-2.74.11-6.44.39-10.82.09-1.5.22-3.11.37-4.76-.59-.14-5.36-1.37-7.16-2.81-1.63-1.3-3.35-3.42-3.29-5.63a3.7,3.7,0,0,1,4.08-3.72c3.11.4,5.72,5.41,6.23,8.17,0,.16.16,2,.22,3.09.07-.67.12-1.32.2-2,.13-1.37.31-2.73.5-4.2.11-.7.23-1.42.34-2.14s.3-1.46.45-2.19c.38-1.71.84-3.42,1.35-5.13-1.2-.12-5.45-.62-7.28-1.67s-3.83-2.87-4.1-5.07a3.7,3.7,0,0,1,3.47-4.29c3.13-.08,6.47,4.48,7.39,7.13.06.16.51,2.13.73,3.22.32-1,.62-2.05,1-3.08,1-3,2.13-5.93,3.23-8.9.34-.91.66-1.82,1-2.73-.43,0-5.5-.52-7.54-1.7-1.81-1-3.83-2.87-4.11-5.07a3.71,3.71,0,0,1,3.47-4.29c3.14-.08,6.48,4.49,7.4,7.13.07.2.71,3,.84,3.77.72-2,1.43-4,2-6a65.26,65.26,0,0,0,2-8.24c-.2,0-5.49-.5-7.58-1.7-1.82-1.05-3.84-2.88-4.11-5.08a3.7,3.7,0,0,1,3.47-4.29c3.13-.08,6.47,4.49,7.39,7.13.06.17.56,2.34.77,3.37h.17a47.81,47.81,0,0,0,.48-8.51c0-1.56-.15-3.06-.3-4.51-1,0-5.54,0-7.54-.86s-4.13-2.44-4.65-4.59a3.71,3.71,0,0,1,3-4.65c3.11-.42,6.93,3.75,8.14,6.27.06.14.58,1.61.93,2.69-.07-.66-.14-1.33-.23-2-.31-2.35-.75-4.48-1.15-6.37-.24-1.07-.47-2-.7-2.93-1-.5-4.92-2.55-6.26-4.22s-2.54-4.06-2-6.21A3.71,3.71,0,0,1,388.55,208.66Z" style="fill:#fff"></path><path d="M445.23,257c-2.45-.1-7.35-2.62-7.35-2.62s2.63-2.72,2.82-2.88c2.19-1.74,7.45-3.83,10.06-2.09a3.7,3.7,0,0,1,.65,5.48C450,256.6,447.32,257.08,445.23,257Z" style="fill:#fff"></path></g><path d="M416.62,318.35s-14.87-35.84-23.19-34.28,14.27,57.14,14.27,57.14-26.16-49.35-44-49.35,6.54,54.54,29.14,72.72c0,0-35.68-38.44-56.49-30.12S378,381.73,378,381.73s-36.27-11.43-32.11-2.6,15.46,10.39,15.46,10.39l-41,2.08H463l-32.11-3.12s33.3-16.62,24.38-23.38-28.54,7.79-28.54,7.79,33.89-37.4,27.35-51.42-35.68,25.45-35.68,25.45,23.79-50.38,19-59.22S416.62,318.35,416.62,318.35Z" style="fill:#407BFF"></path><path d="M416.62,318.35s-14.87-35.84-23.19-34.28,14.27,57.14,14.27,57.14-26.16-49.35-44-49.35,6.54,54.54,29.14,72.72c0,0-35.68-38.44-56.49-30.12S378,381.73,378,381.73s-36.27-11.43-32.11-2.6,15.46,10.39,15.46,10.39l-41,2.08H463l-32.11-3.12s33.3-16.62,24.38-23.38-28.54,7.79-28.54,7.79,33.89-37.4,27.35-51.42-35.68,25.45-35.68,25.45,23.79-50.38,19-59.22S416.62,318.35,416.62,318.35Z" style="fill:#fff;opacity:0.4"></path><path d="M421.38,320.24c-13.08,38.65-13.08,66-13.08,66s15.46.6,31.51-11.29" style="fill:none;stroke:#263238;stroke-linecap:round;stroke-linejoin:round"></path><path d="M414.84,341.05a232.21,232.21,0,0,0-10.71-33.89" style="fill:none;stroke:#263238;stroke-linecap:round;stroke-linejoin:round"></path><path d="M376.19,318.46l33.29,49.35s22.6-19,30.33-29.73" style="fill:none;stroke:#263238;stroke-linecap:round;stroke-linejoin:round"></path><path d="M408.89,379.7s-35.08-16.65-49.35-26.16" style="fill:none;stroke:#263238;stroke-linecap:round;stroke-linejoin:round"></path></g><g id="freepik--Page--inject-2"><polygon points="186.7 139.04 178.53 126 106.57 126 106.57 139.04 106.57 143.73 106.57 360.67 402.77 360.67 402.77 139.04 186.7 139.04" style="fill:#263238"></polygon><rect x="108.77" y="145.02" width="292.05" height="210.92" style="fill:#fff"></rect><g style="clip-path:url(#freepik--clip-path--inject-2)"><rect x="395.47" y="143.21" width="6.78" height="214.33" style="opacity:0.17"></rect><rect x="395.47" y="272.8" width="6.78" height="83" style="opacity:0.17"></rect><rect x="107.61" y="142.17" width="293.59" height="11.47" style="fill:#407BFF;stroke:#263238;stroke-miterlimit:10"></rect></g><rect x="108.77" y="145.02" width="292.05" height="210.92" style="fill:none;stroke:#263238;stroke-linecap:round;stroke-linejoin:round"></rect><g style="opacity:0.17"><path d="M260.93,164.7H240.5a1.8,1.8,0,0,1-1.8-1.8h0a1.8,1.8,0,0,1,1.8-1.81h20.43a1.8,1.8,0,0,1,1.8,1.81h0A1.8,1.8,0,0,1,260.93,164.7Z"></path><path d="M301.79,164.7H281.36a1.81,1.81,0,0,1-1.8-1.8h0a1.81,1.81,0,0,1,1.8-1.81h20.43a1.81,1.81,0,0,1,1.81,1.81h0A1.81,1.81,0,0,1,301.79,164.7Z"></path><path d="M342.66,164.7H322.23a1.81,1.81,0,0,1-1.81-1.8h0a1.81,1.81,0,0,1,1.81-1.81h20.43a1.81,1.81,0,0,1,1.8,1.81h0A1.81,1.81,0,0,1,342.66,164.7Z"></path><path d="M383.52,164.7H363.09a1.8,1.8,0,0,1-1.8-1.8h0a1.8,1.8,0,0,1,1.8-1.81h20.43a1.81,1.81,0,0,1,1.8,1.81h0A1.81,1.81,0,0,1,383.52,164.7Z"></path></g><line x1="136.37" y1="250.79" x2="167.24" y2="250.79" style="fill:none;stroke:#263238;stroke-linecap:round;stroke-linejoin:round;stroke-width:3px"></line><line x1="166.69" y1="255.6" x2="170.06" y2="255.6" style="fill:none;stroke:#263238;stroke-linecap:round;stroke-linejoin:round"></line><line x1="147.36" y1="255.6" x2="164.65" y2="255.6" style="fill:none;stroke:#263238;stroke-linecap:round;stroke-linejoin:round"></line><line x1="134.01" y1="255.6" x2="145.53" y2="255.6" style="fill:none;stroke:#263238;stroke-linecap:round;stroke-linejoin:round"></line><line x1="155.9" y1="260.41" x2="170.06" y2="260.41" style="fill:none;stroke:#263238;stroke-linecap:round;stroke-linejoin:round"></line><line x1="148.17" y1="260.41" x2="153.67" y2="260.41" style="fill:none;stroke:#263238;stroke-linecap:round;stroke-linejoin:round"></line><line x1="134.01" y1="260.41" x2="145.73" y2="260.41" style="fill:none;stroke:#263238;stroke-linecap:round;stroke-linejoin:round"></line><line x1="141.66" y1="265.21" x2="170.06" y2="265.21" style="fill:none;stroke:#263238;stroke-linecap:round;stroke-linejoin:round"></line><line x1="134.01" y1="265.21" x2="139.02" y2="265.21" style="fill:none;stroke:#263238;stroke-linecap:round;stroke-linejoin:round"></line><line x1="163.03" y1="270.02" x2="170.06" y2="270.02" style="fill:none;stroke:#263238;stroke-linecap:round;stroke-linejoin:round"></line><line x1="149.6" y1="270.02" x2="160.58" y2="270.02" style="fill:none;stroke:#263238;stroke-linecap:round;stroke-linejoin:round"></line><line x1="134.01" y1="270.02" x2="147.36" y2="270.02" style="fill:none;stroke:#263238;stroke-linecap:round;stroke-linejoin:round"></line><line x1="145.73" y1="274.83" x2="170.06" y2="274.83" style="fill:none;stroke:#263238;stroke-linecap:round;stroke-linejoin:round"></line><line x1="134.01" y1="274.83" x2="143.49" y2="274.83" style="fill:none;stroke:#263238;stroke-linecap:round;stroke-linejoin:round"></line><line x1="206.77" y1="250.79" x2="237.64" y2="250.79" style="fill:none;stroke:#263238;stroke-linecap:round;stroke-linejoin:round;stroke-width:3px"></line><line x1="237.09" y1="255.6" x2="240.46" y2="255.6" style="fill:none;stroke:#263238;stroke-linecap:round;stroke-linejoin:round"></line><line x1="217.76" y1="255.6" x2="235.05" y2="255.6" style="fill:none;stroke:#263238;stroke-linecap:round;stroke-linejoin:round"></line><line x1="204.41" y1="255.6" x2="215.93" y2="255.6" style="fill:none;stroke:#263238;stroke-linecap:round;stroke-linejoin:round"></line><line x1="226.3" y1="260.41" x2="240.46" y2="260.41" style="fill:none;stroke:#263238;stroke-linecap:round;stroke-linejoin:round"></line><line x1="218.57" y1="260.41" x2="224.07" y2="260.41" style="fill:none;stroke:#263238;stroke-linecap:round;stroke-linejoin:round"></line><line x1="204.41" y1="260.41" x2="216.13" y2="260.41" style="fill:none;stroke:#263238;stroke-linecap:round;stroke-linejoin:round"></line><line x1="212.06" y1="265.21" x2="240.46" y2="265.21" style="fill:none;stroke:#263238;stroke-linecap:round;stroke-linejoin:round"></line><line x1="204.41" y1="265.21" x2="209.42" y2="265.21" style="fill:none;stroke:#263238;stroke-linecap:round;stroke-linejoin:round"></line><line x1="233.43" y1="270.02" x2="240.46" y2="270.02" style="fill:none;stroke:#263238;stroke-linecap:round;stroke-linejoin:round"></line><line x1="220" y1="270.02" x2="230.98" y2="270.02" style="fill:none;stroke:#263238;stroke-linecap:round;stroke-linejoin:round"></line><line x1="204.41" y1="270.02" x2="217.76" y2="270.02" style="fill:none;stroke:#263238;stroke-linecap:round;stroke-linejoin:round"></line><line x1="216.13" y1="274.83" x2="240.46" y2="274.83" style="fill:none;stroke:#263238;stroke-linecap:round;stroke-linejoin:round"></line><line x1="204.41" y1="274.83" x2="213.89" y2="274.83" style="fill:none;stroke:#263238;stroke-linecap:round;stroke-linejoin:round"></line><line x1="277.17" y1="250.79" x2="308.04" y2="250.79" style="fill:none;stroke:#263238;stroke-linecap:round;stroke-linejoin:round;stroke-width:3px"></line><line x1="307.49" y1="255.6" x2="310.86" y2="255.6" style="fill:none;stroke:#263238;stroke-linecap:round;stroke-linejoin:round"></line><line x1="288.16" y1="255.6" x2="305.45" y2="255.6" style="fill:none;stroke:#263238;stroke-linecap:round;stroke-linejoin:round"></line><line x1="274.81" y1="255.6" x2="286.33" y2="255.6" style="fill:none;stroke:#263238;stroke-linecap:round;stroke-linejoin:round"></line><line x1="296.7" y1="260.41" x2="310.86" y2="260.41" style="fill:none;stroke:#263238;stroke-linecap:round;stroke-linejoin:round"></line><line x1="288.97" y1="260.41" x2="294.47" y2="260.41" style="fill:none;stroke:#263238;stroke-linecap:round;stroke-linejoin:round"></line><line x1="274.81" y1="260.41" x2="286.53" y2="260.41" style="fill:none;stroke:#263238;stroke-linecap:round;stroke-linejoin:round"></line><line x1="282.46" y1="265.21" x2="310.86" y2="265.21" style="fill:none;stroke:#263238;stroke-linecap:round;stroke-linejoin:round"></line><line x1="274.81" y1="265.21" x2="279.82" y2="265.21" style="fill:none;stroke:#263238;stroke-linecap:round;stroke-linejoin:round"></line><line x1="303.83" y1="270.02" x2="310.86" y2="270.02" style="fill:none;stroke:#263238;stroke-linecap:round;stroke-linejoin:round"></line><line x1="290.4" y1="270.02" x2="301.38" y2="270.02" style="fill:none;stroke:#263238;stroke-linecap:round;stroke-linejoin:round"></line><line x1="274.81" y1="270.02" x2="288.16" y2="270.02" style="fill:none;stroke:#263238;stroke-linecap:round;stroke-linejoin:round"></line><line x1="286.53" y1="274.83" x2="310.86" y2="274.83" style="fill:none;stroke:#263238;stroke-linecap:round;stroke-linejoin:round"></line><line x1="274.81" y1="274.83" x2="284.29" y2="274.83" style="fill:none;stroke:#263238;stroke-linecap:round;stroke-linejoin:round"></line><line x1="347.57" y1="250.79" x2="378.44" y2="250.79" style="fill:none;stroke:#263238;stroke-linecap:round;stroke-linejoin:round;stroke-width:3px"></line><line x1="377.89" y1="255.6" x2="381.26" y2="255.6" style="fill:none;stroke:#263238;stroke-linecap:round;stroke-linejoin:round"></line><line x1="358.56" y1="255.6" x2="375.85" y2="255.6" style="fill:none;stroke:#263238;stroke-linecap:round;stroke-linejoin:round"></line><line x1="345.21" y1="255.6" x2="356.73" y2="255.6" style="fill:none;stroke:#263238;stroke-linecap:round;stroke-linejoin:round"></line><line x1="367.1" y1="260.41" x2="381.26" y2="260.41" style="fill:none;stroke:#263238;stroke-linecap:round;stroke-linejoin:round"></line><line x1="359.37" y1="260.41" x2="364.87" y2="260.41" style="fill:none;stroke:#263238;stroke-linecap:round;stroke-linejoin:round"></line><line x1="345.21" y1="260.41" x2="356.93" y2="260.41" style="fill:none;stroke:#263238;stroke-linecap:round;stroke-linejoin:round"></line><line x1="352.86" y1="265.21" x2="381.26" y2="265.21" style="fill:none;stroke:#263238;stroke-linecap:round;stroke-linejoin:round"></line><line x1="345.21" y1="265.21" x2="350.22" y2="265.21" style="fill:none;stroke:#263238;stroke-linecap:round;stroke-linejoin:round"></line><line x1="374.23" y1="270.02" x2="381.26" y2="270.02" style="fill:none;stroke:#263238;stroke-linecap:round;stroke-linejoin:round"></line><line x1="360.8" y1="270.02" x2="371.78" y2="270.02" style="fill:none;stroke:#263238;stroke-linecap:round;stroke-linejoin:round"></line><line x1="345.21" y1="270.02" x2="358.56" y2="270.02" style="fill:none;stroke:#263238;stroke-linecap:round;stroke-linejoin:round"></line><line x1="356.93" y1="274.83" x2="381.26" y2="274.83" style="fill:none;stroke:#263238;stroke-linecap:round;stroke-linejoin:round"></line><line x1="345.21" y1="274.83" x2="354.69" y2="274.83" style="fill:none;stroke:#263238;stroke-linecap:round;stroke-linejoin:round"></line><path d="M390.77,235.3h-272V179.19h272Z" style="fill:#407BFF"></path><path d="M390.77,235.3h-272V179.19h272Z" style="fill:#fff;opacity:0.7000000000000001"></path><path d="M321.94,235.3H187.65V179.19H321.94Z" style="fill:#407BFF"></path><path d="M321.94,235.3H187.65V179.19H321.94Z" style="fill:#fff;opacity:0.92"></path><line x1="294.5" y1="195.45" x2="303.65" y2="195.45" style="fill:none;stroke:#263238;stroke-linecap:round;stroke-linejoin:round"></line><line x1="242.12" y1="195.45" x2="288.99" y2="195.45" style="fill:none;stroke:#263238;stroke-linecap:round;stroke-linejoin:round"></line><line x1="205.94" y1="195.45" x2="237.15" y2="195.45" style="fill:none;stroke:#263238;stroke-linecap:round;stroke-linejoin:round"></line><line x1="265.28" y1="200.26" x2="303.65" y2="200.26" style="fill:none;stroke:#263238;stroke-linecap:round;stroke-linejoin:round"></line><line x1="244.32" y1="200.26" x2="259.21" y2="200.26" style="fill:none;stroke:#263238;stroke-linecap:round;stroke-linejoin:round"></line><line x1="205.94" y1="200.26" x2="237.71" y2="200.26" style="fill:none;stroke:#263238;stroke-linecap:round;stroke-linejoin:round"></line><line x1="226.68" y1="205.07" x2="303.65" y2="205.07" style="fill:none;stroke:#263238;stroke-linecap:round;stroke-linejoin:round"></line><line x1="205.94" y1="205.07" x2="219.51" y2="205.07" style="fill:none;stroke:#263238;stroke-linecap:round;stroke-linejoin:round"></line><line x1="284.58" y1="209.88" x2="303.65" y2="209.88" style="fill:none;stroke:#263238;stroke-linecap:round;stroke-linejoin:round"></line><line x1="248.18" y1="209.88" x2="277.96" y2="209.88" style="fill:none;stroke:#263238;stroke-linecap:round;stroke-linejoin:round"></line><line x1="205.94" y1="209.88" x2="242.12" y2="209.88" style="fill:none;stroke:#263238;stroke-linecap:round;stroke-linejoin:round"></line><line x1="237.71" y1="214.68" x2="303.65" y2="214.68" style="fill:none;stroke:#263238;stroke-linecap:round;stroke-linejoin:round"></line><line x1="205.94" y1="214.68" x2="231.64" y2="214.68" style="fill:none;stroke:#263238;stroke-linecap:round;stroke-linejoin:round"></line><path d="M390.77,355.24h-272V299.13h272Z" style="fill:#407BFF"></path><path d="M390.77,355.24h-272V299.13h272Z" style="fill:#fff;opacity:0.7000000000000001"></path></g></svg>