<?xml version="1.0" encoding="UTF-8"?>
<svg version="1.1" xmlns="http://www.w3.org/2000/svg" width="1000" height="1000">
<path d="M0 0 C330 0 660 0 1000 0 C1000 330 1000 660 1000 1000 C670 1000 340 1000 0 1000 C0 670 0 340 0 0 Z " fill="#029A74" transform="translate(0,0)"/>
<path d="M0 0 C0.83342926 -0.00067474 1.66685852 -0.00134949 2.52554321 -0.00204468 C16.77629531 0.01616291 30.61029936 0.92666734 44.6875 3.25 C45.75935547 3.41628906 46.83121094 3.58257812 47.93554688 3.75390625 C65.02694691 6.43529963 81.3306208 10.63272784 97.6875 16.25 C98.60192871 16.56308105 99.51635742 16.87616211 100.45849609 17.19873047 C133.01507376 28.54338555 162.84083744 45.71357855 189.6875 67.25 C190.21891602 67.67555176 190.75033203 68.10110352 191.29785156 68.53955078 C206.44183862 80.79657233 220.87792029 94.73545411 232.6875 110.25 C233.55703422 111.3330329 234.4296365 112.41360705 235.3046875 113.4921875 C245.63053296 126.28369129 254.5467484 139.97770357 262.6875 154.25 C263.07905273 154.93449219 263.47060547 155.61898437 263.87402344 156.32421875 C280.21901545 185.24734724 291.26512026 217.49647568 296.6875 250.25 C296.81244843 250.98052582 296.93739685 251.71105164 297.06613159 252.4637146 C299.52358335 267.14798549 300.18711543 281.58673857 300.13354492 296.4621582 C300.12503222 300.04892461 300.15394138 303.63409223 300.18554688 307.22070312 C300.23297476 322.93776538 298.63158865 337.82577883 295.6875 353.25 C295.44619459 354.59583501 295.20700174 355.94205243 294.97094727 357.28881836 C292.71541527 369.89468439 289.98653523 382.17369309 285.6875 394.25 C285.39955566 395.08692383 285.11161133 395.92384766 284.81494141 396.78613281 C271.01400657 436.70900127 250.01686778 472.5301525 221.2265625 503.48828125 C219.23021548 505.65969255 217.32208971 507.85866006 215.4375 510.125 C206.32438776 520.58659185 195.4828442 529.62332152 184.42041016 537.94091797 C182.71855078 539.2265435 181.03664143 540.53514882 179.35546875 541.84765625 C143.51424148 569.42372885 99.43882455 588.69479097 54.79296875 595.8984375 C51.20498271 596.49754463 47.63476872 597.18927809 44.0625 597.875 C35.47787346 599.52112426 27.34367242 600.4152202 18.61328125 600.453125 C17.54428085 600.46013931 16.47528046 600.46715363 15.37388611 600.47438049 C11.91588136 600.491896 8.45804756 600.49823843 5 600.5 C3.82344849 600.50067474 2.64689697 600.50134949 1.43469238 600.50204468 C-16.00198679 600.4861152 -33.08215356 600.16475724 -50.3125 597.25 C-51.81441895 597.00056641 -51.81441895 597.00056641 -53.34667969 596.74609375 C-100.95821074 588.51882118 -147.82842471 567.84285253 -185.3125 537.25 C-186.23804688 536.51523437 -187.16359375 535.78046875 -188.1171875 535.0234375 C-204.27490434 522.06980049 -219.52338741 507.55611856 -232.3125 491.25 C-233.7702011 489.52030032 -235.22855191 487.79114801 -236.6875 486.0625 C-256.57042475 461.71111307 -271.25680808 433.18248857 -282.30957031 403.90380859 C-283.14430066 401.69506496 -283.99918515 399.49655778 -284.8671875 397.30078125 C-304.1203286 346.77623396 -305.90502849 285.51003739 -293.3125 233.25 C-293.00554199 231.97261963 -293.00554199 231.97261963 -292.69238281 230.66943359 C-281.38110114 184.65500449 -260.00910152 140.69301166 -228.3125 105.25 C-227.55582031 104.39535156 -226.79914063 103.54070312 -226.01953125 102.66015625 C-223.80071036 100.17429143 -221.55821438 97.71157563 -219.3125 95.25 C-218.404415 94.23745685 -217.49688828 93.22441282 -216.58984375 92.2109375 C-212.05633652 87.16953346 -207.50904818 82.28706428 -202.296875 77.9296875 C-200.92019459 76.76438716 -199.5780172 75.55756774 -198.265625 74.3203125 C-145.97521104 25.09519867 -70.86724926 0.05216223 0 0 Z " fill="#FDFEFE" transform="translate(500.3125,199.75)"/>
<path d="M0 0 C2.1862592 0.80409136 4.3865581 1.56027045 6.58984375 2.31640625 C35.80839912 12.5099518 61.06050329 28.92368472 82.96484375 50.72265625 C83.76100098 51.512771 83.76100098 51.512771 84.57324219 52.31884766 C121.6574245 89.602913 139.28805107 140.97965734 139.27685547 192.79501343 C139.03789536 240.68378849 120.69547579 286.02858401 88.96484375 321.72265625 C88.09601563 322.71394531 87.2271875 323.70523437 86.33203125 324.7265625 C81.50282093 330.15388602 76.58322789 335.12494523 70.96484375 339.72265625 C69.93348604 340.60143611 68.9022464 341.48035454 67.87109375 342.359375 C32.116384 372.36430707 -12.20644266 387.85678746 -58.64868164 387.96289062 C-61.20036745 387.97257169 -63.75123722 388.00367754 -66.30273438 388.03515625 C-76.94224029 388.10393408 -86.65218355 387.08344069 -97.03515625 384.72265625 C-98.47338745 384.42439941 -98.47338745 384.42439941 -99.94067383 384.12011719 C-126.65230236 378.55508937 -152.00381264 367.95759852 -174.03515625 351.72265625 C-174.89947266 351.0894043 -174.89947266 351.0894043 -175.78125 350.44335938 C-219.93988795 317.74236357 -247.91272118 270.17512628 -256.1171875 215.94140625 C-257.32904833 206.52329904 -257.43166188 197.14566147 -257.41015625 187.66015625 C-257.40961243 186.75535522 -257.4090686 185.8505542 -257.4085083 184.91833496 C-257.37041961 171.12413574 -256.56577731 158.11268065 -253.03515625 144.72265625 C-252.62987795 143.02351627 -252.22493737 141.3242957 -251.8203125 139.625 C-245.05928409 112.66944772 -231.8334265 87.03834513 -214.03515625 65.72265625 C-213.31561768 64.85302246 -213.31561768 64.85302246 -212.58154297 63.96582031 C-194.78374839 42.53523899 -173.81056848 25.52278417 -149.03515625 12.72265625 C-148.37080566 12.37750977 -147.70645508 12.03236328 -147.02197266 11.67675781 C-103.70579217 -10.51796541 -46.14906466 -17.07417826 0 0 Z " fill="#FDFEFE" transform="translate(559.03515625,310.27734375)"/>
<path d="M0 0 C2.1862592 0.80409136 4.3865581 1.56027045 6.58984375 2.31640625 C35.80839912 12.5099518 61.06050329 28.92368472 82.96484375 50.72265625 C83.76100098 51.512771 83.76100098 51.512771 84.57324219 52.31884766 C121.6574245 89.602913 139.28805107 140.97965734 139.27685547 192.79501343 C139.03789536 240.68378849 120.69547579 286.02858401 88.96484375 321.72265625 C88.09601563 322.71394531 87.2271875 323.70523437 86.33203125 324.7265625 C81.50282093 330.15388602 76.58322789 335.12494523 70.96484375 339.72265625 C69.93348604 340.60143611 68.9022464 341.48035454 67.87109375 342.359375 C32.116384 372.36430707 -12.20644266 387.85678746 -58.64868164 387.96289062 C-61.20036745 387.97257169 -63.75123722 388.00367754 -66.30273438 388.03515625 C-76.94224029 388.10393408 -86.65218355 387.08344069 -97.03515625 384.72265625 C-98.47338745 384.42439941 -98.47338745 384.42439941 -99.94067383 384.12011719 C-126.65230236 378.55508937 -152.00381264 367.95759852 -174.03515625 351.72265625 C-174.89947266 351.0894043 -174.89947266 351.0894043 -175.78125 350.44335938 C-219.93988795 317.74236357 -247.91272118 270.17512628 -256.1171875 215.94140625 C-257.32904833 206.52329904 -257.43166188 197.14566147 -257.41015625 187.66015625 C-257.40961243 186.75535522 -257.4090686 185.8505542 -257.4085083 184.91833496 C-257.37041961 171.12413574 -256.56577731 158.11268065 -253.03515625 144.72265625 C-252.62987795 143.02351627 -252.22493737 141.3242957 -251.8203125 139.625 C-245.05928409 112.66944772 -231.8334265 87.03834513 -214.03515625 65.72265625 C-213.31561768 64.85302246 -213.31561768 64.85302246 -212.58154297 63.96582031 C-194.78374839 42.53523899 -173.81056848 25.52278417 -149.03515625 12.72265625 C-148.37080566 12.37750977 -147.70645508 12.03236328 -147.02197266 11.67675781 C-103.70579217 -10.51796541 -46.14906466 -17.07417826 0 0 Z M-99.03515625 7.72265625 C-100.54903389 8.01662537 -102.06333533 8.30842348 -103.578125 8.59765625 C-150.17299272 17.96886978 -189.81288032 50.4325239 -216.12109375 88.76171875 C-225.40344984 103.12095532 -233.05298445 119.36684127 -238.03515625 135.72265625 C-238.38964844 136.84671875 -238.74414062 137.97078125 -239.109375 139.12890625 C-252.80400667 185.96556475 -245.01465799 237.46692212 -222.38867188 280.10424805 C-215.40254289 292.8175174 -206.98983397 304.18469663 -197.03515625 314.72265625 C-195.92655938 316.03141645 -194.82224651 317.34381984 -193.72265625 318.66015625 C-180.45256655 333.73980364 -163.59369956 345.46565243 -145.88623047 354.74804688 C-144.13376344 355.67073856 -142.39828794 356.62549439 -140.6640625 357.58203125 C-100.72948893 378.84284073 -49.74463337 381.57902853 -6.86352539 368.61401367 C21.36479407 359.69944578 46.54597745 346.37542301 67.96484375 325.72265625 C68.53058105 325.1827002 69.09631836 324.64274414 69.67919922 324.08642578 C103.35731305 291.81120136 126.02508019 246.97232538 127.1328125 199.77734375 C127.59604941 147.47185478 112.45166012 100.06759753 75.96484375 61.72265625 C75.454375 61.18495605 74.94390625 60.64725586 74.41796875 60.09326172 C42.82239982 27.03049201 -2.23087636 4.64654785 -48.41015625 3.484375 C-51.28518823 3.44021969 -54.15981238 3.41972935 -57.03515625 3.41015625 C-57.78715302 3.40753784 -58.53914978 3.40491943 -59.31393433 3.40222168 C-72.89663962 3.39717777 -85.74537846 4.84418958 -99.03515625 7.72265625 Z " fill="#079B76" transform="translate(559.03515625,310.27734375)"/>
<path d="M0 0 C0.78648926 0.00725098 1.57297852 0.01450195 2.38330078 0.02197266 C41.4044902 0.5852832 80.83074814 16.0920895 112 39 C112.59409668 39.42877441 113.18819336 39.85754883 113.80029297 40.29931641 C158.74590211 72.8680459 186.93199956 122.31632497 195.9765625 176.66796875 C203.84030743 227.96933326 191.48248765 283.45546785 160.82226562 325.61962891 C148.91491743 341.8172656 135.83522001 356.5289607 120 369 C119.03707031 369.79148437 118.07414062 370.58296875 117.08203125 371.3984375 C91.55388434 391.91154921 59.90907132 404.59105794 28 411 C26.44345703 411.31904297 26.44345703 411.31904297 24.85546875 411.64453125 C3.62473851 415.59509551 -19.7230494 415.54209826 -41 412 C-42.14251221 411.8146167 -42.14251221 411.8146167 -43.30810547 411.62548828 C-85.55263482 404.55473626 -123.13529233 384.46176642 -154 355 C-154.85335937 354.19949219 -155.70671875 353.39898438 -156.5859375 352.57421875 C-162.93629299 346.45423893 -168.37350559 339.81380052 -173.66064453 332.77929688 C-174.52209227 331.63488727 -175.38978106 330.49513499 -176.26513672 329.36132812 C-188.88149019 313.00661049 -198.14252661 294.42754753 -205 275 C-205.27537598 274.2363916 -205.55075195 273.4727832 -205.83447266 272.68603516 C-217.45561701 239.8119963 -220.24139751 201.18217844 -213 167 C-212.7831958 165.95223389 -212.7831958 165.95223389 -212.56201172 164.88330078 C-201.674527 113.84595549 -171.48369318 68.14710177 -129 38 C-128.3620752 37.54399414 -127.72415039 37.08798828 -127.06689453 36.61816406 C-113.34517071 26.89399529 -98.60647734 19.23489354 -83 13 C-81.72576172 12.46632813 -81.72576172 12.46632813 -80.42578125 11.921875 C-65.7309135 6.10852072 -49.55588058 3.45444598 -34 1 C-32.95457031 0.81179688 -31.90914062 0.62359375 -30.83203125 0.4296875 C-20.6490299 -0.71213732 -10.23182491 -0.13369794 0 0 Z M-95 28 C-95.75748535 28.36351562 -96.5149707 28.72703125 -97.29541016 29.1015625 C-144.77034581 52.28142131 -180.40946123 94.50481414 -198 144 C-204.51321294 163.73811153 -207.59298772 183.25186413 -207.4375 204 C-207.43379395 204.89252472 -207.43008789 205.78504944 -207.42626953 206.70462036 C-207.24339011 237.79100482 -200.93938017 267.04636995 -187 295 C-186.505 295.99845947 -186.505 295.99845947 -186 297.01708984 C-162.9616326 342.97008342 -121.17855775 379.25896497 -72.44238281 395.76782227 C-63.22847011 398.67896051 -53.80539293 400.80106234 -44.30786133 402.55761719 C-42.75455301 402.85536337 -41.20703339 403.18486236 -39.66674805 403.54394531 C-31.27282494 405.36804208 -22.93378944 405.3030516 -14.38647461 405.26074219 C-11.83487782 405.25009339 -9.28399632 405.26064889 -6.73242188 405.2734375 C19.26671768 405.29767413 44.10555076 400.27638175 68 390 C68.80920898 389.65453125 69.61841797 389.3090625 70.45214844 388.953125 C89.50598446 380.69363765 106.35908199 369.61480451 122 356 C122.57395508 355.50048828 123.14791016 355.00097656 123.73925781 354.48632812 C129.94669781 349.03536332 135.78184206 343.41241676 141 337 C141.91274688 335.91144699 142.82550868 334.82290648 143.73828125 333.734375 C151.01159037 324.96037342 157.30721017 315.86856375 163 306 C163.41491699 305.28924316 163.82983398 304.57848633 164.25732422 303.84619141 C174.53458241 286.02990644 182.0862591 266.21609023 186 246 C186.14663086 245.28682617 186.29326172 244.57365234 186.44433594 243.83886719 C196.4439236 193.53986601 184.76628957 139.05919935 156.48046875 96.5546875 C131.27623458 59.96113404 96.21109499 33.17912578 54.24609375 18.77734375 C52.21610857 18.07479236 50.20204341 17.33908847 48.1875 16.59375 C2.34524289 0.66550812 -51.90093498 7.31666988 -95 28 Z " fill="#F8FCFB" transform="translate(509,293)"/>
<path d="M0 0 C1.1446875 0.00386719 2.289375 0.00773437 3.46875 0.01171875 C6.5 0.3125 6.5 0.3125 9.5 2.3125 C10.01171875 5.3515625 10.01171875 5.3515625 10.1875 8.9375 C10.25324219 10.12601562 10.31898438 11.31453125 10.38671875 12.5390625 C10.44279297 13.91191406 10.44279297 13.91191406 10.5 15.3125 C14.49792528 16.37861341 18.41593711 17.33549828 22.5 16.3125 C24.16959737 14.73048829 24.16959737 14.73048829 25.5625 12.75 C27.01171875 10.83203125 27.01171875 10.83203125 28.5 9.3125 C32.5085691 8.86710343 34.50044355 9.56942025 37.72265625 11.96484375 C39.71940609 13.68690843 41.63108069 15.45328936 43.5 17.3125 C42.6953125 22.078125 42.6953125 22.078125 40.9375 24.1875 C38.79862764 27.34931132 39.04181499 29.58156491 39.5 33.3125 C40.96592709 36.16737283 40.96592709 36.16737283 43.5 38.3125 C47.01543845 38.70061905 47.01543845 38.70061905 50.75 38.125 C52.01328125 37.98707031 53.2765625 37.84914063 54.578125 37.70703125 C56.02445313 37.51173828 56.02445313 37.51173828 57.5 37.3125 C62.67971081 45.73664505 62.67971081 45.73664505 62.32421875 50.83203125 C61.5 53.3125 61.5 53.3125 59.50390625 54.82421875 C58.69824219 55.21222656 57.89257812 55.60023438 57.0625 56 C54.40319465 57.31044421 52.60951555 58.20298445 50.5 60.3125 C50.25712511 62.75262949 50.25712511 62.75262949 50.375 65.4375 C50.39304687 66.34757812 50.41109375 67.25765625 50.4296875 68.1953125 C50.45289063 68.89398438 50.47609375 69.59265625 50.5 70.3125 C51.42232422 70.60253906 51.42232422 70.60253906 52.36328125 70.8984375 C53.17152344 71.15882813 53.97976563 71.41921875 54.8125 71.6875 C55.61300781 71.94273437 56.41351562 72.19796875 57.23828125 72.4609375 C59.5 73.3125 59.5 73.3125 62.5 75.3125 C63.7055964 81.34048199 60.32311299 86.21073152 57.5 91.3125 C56.07107422 91.09980469 56.07107422 91.09980469 54.61328125 90.8828125 C47.84145409 89.80443633 47.84145409 89.80443633 41.421875 91.40625 C39.36440917 93.72385519 38.51467185 95.72562615 38.4375 98.8125 C39.47797323 101.50696792 39.47797323 101.50696792 41.625 104.3125 C43.5 107.3125 43.5 107.3125 43.3828125 109.76171875 C42.27633047 112.95876639 40.92726294 114.09045747 38.25 116.125 C37.48171875 116.72957031 36.7134375 117.33414063 35.921875 117.95703125 C33.13176971 119.51859018 31.6443875 119.86616291 28.5 119.3125 C27.1640625 117.81640625 27.1640625 117.81640625 26.125 115.875 C24.13390621 112.79785506 23.76667873 112.39977667 20.0625 111.1875 C15.76603753 111.33825307 13.79965891 111.48422094 10.5 114.3125 C9.91762804 117.18524528 9.74980985 119.88693219 9.703125 122.81640625 C9.5 125.3125 9.5 125.3125 7.5 127.3125 C4.95464859 127.51099071 2.54283241 127.59101775 0 127.5625 C-0.68964844 127.57023438 -1.37929688 127.57796875 -2.08984375 127.5859375 C-7.24666707 127.56583293 -7.24666707 127.56583293 -9.5 125.3125 C-9.84444968 122.48714058 -9.94261868 119.68700983 -10.05859375 116.84375 C-10.20425781 116.0084375 -10.34992187 115.173125 -10.5 114.3125 C-14.05509983 111.94243344 -17.23677501 110.54165858 -21.5 111.3125 C-23.54114603 113.23408099 -25.13697751 115.32791124 -26.85546875 117.5390625 C-28.5 119.3125 -28.5 119.3125 -31.4375 119.6875 C-35.65339566 117.79464889 -39.30223717 115.69141688 -42.5 112.3125 C-43.25 109.3125 -43.25 109.3125 -42.5 106.3125 C-41.819375 105.301875 -41.13875 104.29125 -40.4375 103.25 C-38.26485016 100.54246951 -38.26485016 100.54246951 -38.5 97.75 C-39.77796169 94.63496837 -41.04349528 92.63622068 -43.5 90.3125 C-46.97680947 89.8489254 -49.73766437 90.35681031 -53.1875 91 C-56.5 91.3125 -56.5 91.3125 -58.3125 90.3125 C-61.01565222 85.75982257 -62.2152193 80.55744152 -61.5 75.3125 C-58.56683431 72.02735442 -54.66437098 71.35359274 -50.5 70.3125 C-50.5 66.6825 -50.5 63.0525 -50.5 59.3125 C-54.13 57.3325 -57.76 55.3525 -61.5 53.3125 C-61.86266924 47.50979221 -60.80512167 43.66038227 -58.5 38.3125 C-58.005 37.8175 -58.005 37.8175 -57.5 37.3125 C-55.24765538 37.56308808 -52.99801648 37.83816802 -50.75 38.125 C-45.92143353 38.63466721 -45.92143353 38.63466721 -41.42578125 37.2578125 C-39.09005811 34.67446255 -38.5 32.62032681 -38.5 29.1875 C-39.32663231 26.31276335 -39.32663231 26.31276335 -41.0625 24.3125 C-42.5 22.3125 -42.5 22.3125 -43.25 19.5 C-42.18264861 14.96375661 -39.56238209 13.3951211 -35.95703125 10.6328125 C-33.12138336 9.10904623 -31.66519074 8.72255359 -28.5 9.3125 C-26.7265625 11.09765625 -26.7265625 11.09765625 -25.125 13.375 C-23.41302101 15.58643046 -23.41302101 15.58643046 -21.5 17.3125 C-17.63599748 17.5089747 -15.6423217 16.97611494 -12.328125 15.05078125 C-10.29402028 13.44495239 -10.29402028 13.44495239 -9.99609375 10.9375 C-9.97675781 10.07125 -9.95742188 9.205 -9.9375 8.3125 C-9.82412556 3.83087502 -9.82412556 3.83087502 -8.37890625 1.51953125 C-5.58687854 -0.27409986 -3.28383372 -0.04807414 0 0 Z " fill="#059B75" transform="translate(578.5,391.6875)"/>
<path d="M0 0 C1.07406097 -0.00058411 2.14812195 -0.00116821 3.25473022 -0.00177002 C6.78278627 0.00100279 10.3099833 0.03205811 13.83789062 0.06347656 C16.29267923 0.07094177 18.74747381 0.07663338 21.20227051 0.08062744 C27.64677536 0.09586152 34.09091661 0.13512477 40.53527832 0.17944336 C47.1178699 0.22044374 53.70052052 0.23864867 60.28320312 0.25878906 C73.18700361 0.30162066 86.09055273 0.36907088 98.99414062 0.45410156 C98.68631566 2.10081569 98.37274828 3.74645733 98.05664062 5.39160156 C97.88261719 6.308125 97.70859375 7.22464844 97.52929688 8.16894531 C96.99414062 10.45410156 96.99414062 10.45410156 95.99414062 11.45410156 C94.63726231 11.55502147 93.2752152 11.58760521 91.91459656 11.59213257 C91.03551636 11.59758591 90.15643616 11.60303925 89.25071716 11.60865784 C88.27876907 11.60970016 87.30682098 11.61074249 86.30541992 11.61181641 C84.77865128 11.61943748 84.77865128 11.61943748 83.22103882 11.62721252 C81.00240132 11.63794267 78.78375281 11.64655239 76.56509972 11.65333176 C73.056347 11.66507928 69.54771969 11.68452142 66.03901672 11.70645142 C56.05998899 11.76820631 46.0809729 11.82213831 36.10180664 11.85546875 C30.00569326 11.87638234 23.90980614 11.91166172 17.81382179 11.95622635 C15.48659741 11.97041602 13.15933298 11.97911544 10.83206749 11.98228073 C7.57815163 11.98717432 4.32483883 12.01029347 1.07104492 12.03759766 C0.10516953 12.03459152 -0.86070587 12.03158539 -1.85585022 12.02848816 C-2.74338989 12.03958115 -3.63092957 12.05067413 -4.54536438 12.06210327 C-5.3146845 12.06541342 -6.08400461 12.06872356 -6.87663746 12.07213402 C-9.61202907 12.56284417 -10.98572215 13.57068366 -13.00585938 15.45410156 C-13.90722453 18.15819704 -14.13472635 19.72561568 -14.14630127 22.50167847 C-14.15201141 23.32316376 -14.15772156 24.14464905 -14.16360474 24.99102783 C-14.1647226 25.88875916 -14.16584045 26.78649048 -14.16699219 27.71142578 C-14.17195709 28.65968231 -14.176922 29.60793884 -14.18203735 30.58493042 C-14.19665909 33.72622398 -14.20346071 36.86746705 -14.20898438 40.00878906 C-14.21473543 42.18970746 -14.22049317 44.37062583 -14.22625732 46.55154419 C-14.23676708 51.12632483 -14.24261004 55.70108789 -14.24609375 60.27587891 C-14.25158105 66.1393679 -14.27561437 72.00262497 -14.3040657 77.86604118 C-14.32268325 82.37159913 -14.3278972 86.87710108 -14.32942963 91.38269424 C-14.33245823 93.54445795 -14.34049373 95.70622062 -14.35361481 97.86794662 C-14.37065799 100.8914738 -14.36879925 103.91443264 -14.36230469 106.93798828 C-14.37612686 108.27851257 -14.37612686 108.27851257 -14.39022827 109.64611816 C-14.35505962 114.86933091 -13.88741711 118.57254383 -10.00585938 122.45410156 C-7.84032762 122.55765608 -5.67135699 122.58933776 -3.50335693 122.59454346 C-2.47218652 122.59900014 -2.47218652 122.59900014 -1.42018437 122.60354686 C0.90055322 122.61227007 3.22123946 122.61374515 5.54199219 122.61523438 C7.19903169 122.61986008 8.85607012 122.6248844 10.5131073 122.63027954 C15.02770222 122.64343142 19.54228225 122.64985417 24.05689335 122.6542902 C26.87562576 122.65721707 29.69435406 122.66132118 32.51308441 122.66579437 C41.32677227 122.67947804 50.14045078 122.68913984 58.95414853 122.69299626 C69.1379383 122.69747618 79.32159379 122.71501731 89.50534272 122.74399686 C97.36949765 122.76560064 105.23361477 122.77569988 113.09779906 122.77703738 C117.7979 122.77808656 122.49787487 122.78401787 127.19794464 122.80185699 C131.6203808 122.81831467 136.04259582 122.82050442 140.46505165 122.81171799 C142.08841607 122.81094631 143.71179227 122.81530747 145.33512688 122.82517624 C147.55158343 122.83786039 149.76725271 122.83203875 151.98370361 122.82159424 C153.22405994 122.8230608 154.46441628 122.82452736 155.74235916 122.82603836 C159.30007499 122.41910897 161.18816352 121.65272371 163.99414062 119.45410156 C164.98869971 116.4704243 165.18973695 114.25368236 165.31054688 111.12988281 C165.35244141 110.10185547 165.39433594 109.07382812 165.4375 108.01464844 C165.47681641 106.94279297 165.51613281 105.8709375 165.55664062 104.76660156 C165.62141602 103.14141602 165.62141602 103.14141602 165.6875 101.48339844 C165.79360805 98.80711772 165.89438117 96.13062645 165.99414062 93.45410156 C169.62414062 93.12410156 173.25414062 92.79410156 176.99414062 92.45410156 C177.11110562 96.78720484 177.18164952 101.11989736 177.24414062 105.45410156 C177.27765625 106.67484375 177.31117188 107.89558594 177.34570312 109.15332031 C177.42991517 116.94293453 177.14859558 123.01033516 171.58129883 128.96533203 C166.33756848 133.65572078 161.7723584 134.70320124 154.87895203 134.7215271 C153.82132879 134.72832377 153.82132879 134.72832377 152.74233943 134.73525774 C150.38569499 134.74789235 148.02928193 134.746282 145.67260742 134.74462891 C143.98043522 134.75061478 142.28826574 134.75742046 140.59609985 134.76498413 C136.00301544 134.78264608 131.41000556 134.78733961 126.81689048 134.7886157 C123.94584425 134.79003783 121.07481694 134.79430862 118.20377541 134.79961014 C108.18344547 134.81811156 98.16316872 134.82628067 88.14282227 134.82470703 C78.80936074 134.82350583 69.47613055 134.84460369 60.14272755 134.87619436 C52.12387338 134.90236635 44.1050947 134.91307393 36.08619815 134.91179621 C31.29939918 134.91128682 26.51280577 134.91695737 21.72604942 134.93815231 C17.22223226 134.95755006 12.71881641 134.95764872 8.21498489 134.94311905 C6.56546376 134.9410317 4.91591742 134.94572744 3.26643944 134.95783997 C-13.865044 135.0754555 -13.865044 135.0754555 -19.00585938 130.45410156 C-24.76711679 124.33642377 -25.88431136 118.74272419 -25.78222656 110.5534668 C-25.79274048 109.50186371 -25.80325439 108.45026062 -25.81408691 107.36679077 C-25.84034527 103.91480877 -25.82306585 100.46469376 -25.80273438 97.01269531 C-25.8067797 94.60091297 -25.81260579 92.18913301 -25.82012939 89.77735901 C-25.82895652 84.73292657 -25.81617659 79.68913331 -25.78808594 74.64477539 C-25.75388338 68.18944967 -25.77360641 61.73561981 -25.80952072 55.28034878 C-25.83123398 50.30362234 -25.82428714 45.3272488 -25.80875397 40.35051155 C-25.80476122 37.97074263 -25.80962897 35.59094132 -25.82363129 33.21121025 C-25.83892609 29.88172772 -25.81556847 26.55464614 -25.78222656 23.2253418 C-25.79437195 22.24901291 -25.80651733 21.27268402 -25.81903076 20.26676941 C-25.710554 14.39933862 -24.68942893 10.6080731 -20.80276108 6.12052631 C-14.54681106 0.31883447 -8.25119033 -0.1186827 0 0 Z " fill="#069B76" transform="translate(413.005859375,432.5458984375)"/>
<path d="M0 0 C60.63931589 -0.83494745 115.21067107 17.78722903 159.39648438 60.04150391 C160.32332031 60.91548828 161.25015625 61.78947266 162.20507812 62.68994141 C195.4175301 94.81886658 215.9793982 140.50018642 221.39648438 186.04150391 C221.50734375 186.90130859 221.61820313 187.76111328 221.73242188 188.64697266 C224.15625179 211.34581224 222.5915803 234.83982037 217.39648438 257.04150391 C217.14382813 258.16814453 216.89117188 259.29478516 216.63085938 260.45556641 C208.91377432 292.09561513 193.68228801 321.45735952 172.39648438 346.04150391 C171.69136719 346.85748047 170.98625 347.67345703 170.25976562 348.51416016 C133.68274008 389.950611 83.71034704 414.82056934 28.70898438 419.72900391 C-27.61740808 422.836211 -82.20779514 406.88268585 -124.99023438 369.33447266 C-156.65736238 340.81338348 -179.2633541 306.36206351 -190.60351562 265.04150391 C-190.81443848 264.28482422 -191.02536133 263.52814453 -191.24267578 262.74853516 C-205.36438037 211.46384432 -197.73746829 155.61816277 -172.60351562 109.04150391 C-162.19105157 90.7630834 -149.48105388 74.8710501 -134.60351562 60.04150391 C-133.63091797 59.01669922 -133.63091797 59.01669922 -132.63867188 57.97119141 C-111.99479987 36.46886136 -84.42134443 21.04215284 -56.60351562 11.04150391 C-55.93465332 10.79706543 -55.26579102 10.55262695 -54.57666016 10.30078125 C-37.29281839 4.09099124 -18.344784 0.29244311 0 0 Z M-24.60351562 6.04150391 C-26.2466121 6.35859848 -27.88984454 6.67498925 -29.53320312 6.99072266 C-43.10755631 9.66290245 -55.95152783 13.37643474 -68.60351562 19.04150391 C-69.28655762 19.3415332 -69.96959961 19.6415625 -70.67333984 19.95068359 C-93.34843885 29.97025842 -113.24002234 43.54626667 -131.14013672 60.64550781 C-132.11453093 61.57503502 -133.09404053 62.49922972 -134.07861328 63.41796875 C-161.87074447 89.39697243 -181.59028289 126.02427757 -189.60351562 163.04150391 C-189.87808594 164.23130859 -190.15265625 165.42111328 -190.43554688 166.64697266 C-193.54054443 180.42826722 -195.04859893 193.8867506 -195.04101562 207.97900391 C-195.04141846 208.75474762 -195.04182129 209.53049133 -195.04223633 210.32974243 C-194.88119782 264.79616018 -173.24770967 316.73241456 -135.10351562 355.50634766 C-133.82058049 356.81935158 -132.5681129 358.16200822 -131.32226562 359.51025391 C-98.7288628 394.1094046 -46.7885835 415.58973031 0.26464844 417.13574219 C7.30846949 417.22964395 14.35315168 417.14493917 21.39648438 417.04150391 C22.14091797 417.03425293 22.88535156 417.02700195 23.65234375 417.01953125 C76.6034442 416.24852559 126.4988387 388.79612154 163.17382812 352.27587891 C186.72378319 327.51557372 203.31646787 296.85881622 212.39648438 264.04150391 C212.60354004 263.31866211 212.8105957 262.59582031 213.02392578 261.85107422 C221.09797712 233.26879645 221.15050165 203.14913315 216.39648438 174.04150391 C216.28965332 173.34798828 216.18282227 172.65447266 216.07275391 171.93994141 C213.18703961 153.51685901 206.54686585 135.73799033 198.39648438 119.04150391 C198.05391602 118.331875 197.71134766 117.62224609 197.35839844 116.89111328 C174.2273705 69.50807563 130.85477586 31.69618511 81.13598633 14.34423828 C77.57711433 13.16790558 73.99616131 12.08534086 70.39648438 11.04150391 C69.13835937 10.66509766 67.88023437 10.28869141 66.58398438 9.90087891 C51.79866488 5.70335176 36.75911272 3.43238735 21.39648438 3.04150391 C20.39907227 3.01427246 19.40166016 2.98704102 18.37402344 2.95898438 C3.7001936 2.61516785 -10.22127161 3.09026991 -24.60351562 6.04150391 Z " fill="#15A17E" transform="translate(487.603515625,289.95849609375)"/>
<path d="M0 0 C8.39832937 5.94540981 14.17675152 13.09408034 17 23 C18.14138855 33.45830439 16.209013 41.63710962 10.25 50.25 C3.92245543 58.09996131 -3.50464219 62.27910266 -13.484375 63.38671875 C-23.73621253 63.85746639 -31.05281353 61.62199818 -39.15625 55.32421875 C-45.43026781 49.54202013 -49.32728367 41.45254286 -50.37109375 32.9921875 C-50.60806785 21.86834447 -47.93642412 13.67730167 -40.25 5.5 C-28.75473798 -5.18887797 -14.07465957 -6.91679581 0 0 Z " fill="#FAFDFC" transform="translate(595,426)"/>
<path d="M0 0 C72.93 0 145.86 0 221 0 C219.81509434 8.29433962 219.81509434 8.29433962 215 13 C210.87562537 15.14586333 207.33899599 15.24296717 202.73120117 15.22705078 C202.01846039 15.22734283 201.3057196 15.22763489 200.57138062 15.22793579 C198.22845044 15.22654857 195.88584299 15.21101636 193.54296875 15.1953125 C191.91343866 15.1915802 190.28390631 15.18873425 188.65437317 15.18673706 C184.37506871 15.17911767 180.095901 15.1594838 175.81665039 15.1373291 C171.44614512 15.11683411 167.07561765 15.10772754 162.70507812 15.09765625 C154.13665615 15.07623625 145.56834511 15.04212085 137 15 C136.525625 14.030625 136.05125 13.06125 135.5625 12.0625 C134.29806053 9.19522563 134.29806053 9.19522563 133 8 C131.59874663 7.89677802 130.1923873 7.8615057 128.78735352 7.85473633 C127.89295059 7.84835648 126.99854767 7.84197662 126.07704163 7.83540344 C125.10415695 7.83429062 124.13127228 7.8331778 123.12890625 7.83203125 C122.13624252 7.82870285 121.1435788 7.82537445 120.12083435 7.82194519 C118.0166775 7.8168716 115.91251257 7.814537 113.80834961 7.81469727 C110.57978117 7.8125117 107.35155473 7.79436301 104.12304688 7.77539062 C102.08333451 7.77245668 100.04362051 7.77047189 98.00390625 7.76953125 C97.03304581 7.76234573 96.06218536 7.75516022 95.06190491 7.74775696 C93.71557228 7.7523719 93.71557228 7.7523719 92.34204102 7.75708008 C91.55007828 7.75565506 90.75811554 7.75423004 89.94215393 7.75276184 C87.76310154 7.82879767 87.76310154 7.82879767 86 10 C85.29289322 11.64991582 84.62056011 13.31562256 84 15 C74.75059944 15.09291116 65.50136092 15.16387156 56.25159454 15.20724869 C51.95597279 15.22807353 47.66067165 15.25629695 43.36523438 15.30175781 C39.21549859 15.34539898 35.0660701 15.36917545 30.91612244 15.37950897 C29.33734809 15.38686773 27.75858949 15.40123752 26.1799469 15.42292023 C10.69261504 15.62707062 10.69261504 15.62707062 4 11 C0.47855179 6.86229836 0 5.57275325 0 0 Z " fill="#0E9E7A" transform="translate(378,579)"/>
<path d="M0 0 C2.1089152 0.00848219 4.21508239 -0.02032066 6.32373047 -0.05200195 C16.3647603 -0.10423848 25.27237937 1.58459108 34.87451172 4.44604492 C35.78507324 4.71247803 36.69563477 4.97891113 37.63378906 5.25341797 C58.88643975 11.7807363 78.53985372 21.97715402 96.87451172 34.44604492 C97.85291016 35.0931543 98.83130859 35.74026367 99.83935547 36.40698242 C105.29118678 40.27134205 109.52814361 45.10064942 111.87451172 51.44604492 C111.52294922 54.25073242 111.52294922 54.25073242 110.87451172 56.44604492 C106.11170596 56.44604492 104.41779209 54.87688353 100.93701172 52.00854492 C99.76700871 51.0791002 98.59508409 50.15207004 97.42138672 49.22729492 C96.82777344 48.75807617 96.23416016 48.28885742 95.62255859 47.80541992 C75.67270059 32.2913404 53.23174394 20.03319248 29.31201172 11.94604492 C27.86834229 11.45648315 27.86834229 11.45648315 26.39550781 10.95703125 C7.36696827 4.80574721 -14.4444128 3.03358252 -32.84423828 11.73120117 C-43.8173952 17.66397728 -50.04031562 26.99440997 -54.23486328 38.48510742 C-59.88520349 59.24773243 -53.37728947 81.97306746 -45.78564453 101.20727539 C-42.39307757 110.3467338 -42.32595721 118.82946287 -43.12548828 128.44604492 C-43.78548828 128.44604492 -44.44548828 128.44604492 -45.12548828 128.44604492 C-46.7900142 124.39751072 -48.4434861 120.3446754 -50.08764648 116.2878418 C-50.64628545 114.91361882 -51.20772496 113.54053034 -51.7722168 112.16870117 C-61.45865628 88.61128035 -67.53411617 59.82399321 -57.87548828 35.19604492 C-55.48559341 29.86798518 -52.6063396 25.12460852 -49.12548828 20.44604492 C-48.38298828 19.41479492 -47.64048828 18.38354492 -46.87548828 17.32104492 C-34.09254967 3.95706365 -17.94109112 -0.10942207 0 0 Z " fill="#0B9D79" transform="translate(421.12548828125,366.553955078125)"/>
<path d="M0 0 C8.51413721 1.0016632 8.51413721 1.0016632 12 3 C13.4765625 6.0546875 13.4765625 6.0546875 14.625 9.875 C14.8310083 10.54974365 15.0370166 11.2244873 15.24926758 11.91967773 C15.85670322 13.94040888 16.43266619 15.96769102 17 18 C17.45052734 19.56814453 17.45052734 19.56814453 17.91015625 21.16796875 C23.8937984 43.4487669 24.86332083 67.06608715 14 88 C11.89357585 91.23018631 9.56436102 94.12413308 7 97 C6.21689453 97.92232422 6.21689453 97.92232422 5.41796875 98.86328125 C-4.09656985 109.30380901 -19.00716873 115.35347049 -33.01074219 116.10839844 C-68.78888167 117.07537518 -97.3418922 104.22442066 -128 87 C-128 86.34 -128 85.68 -128 85 C-115.23202262 83.93600188 -107.01791962 85.53040065 -95.96777344 91.90527344 C-74.69926706 103.73752934 -45.68962614 112.70077579 -21.390625 106.75 C-8.07545919 102.57269308 2.15982263 96.50775291 9 84 C18.71753761 60.84331463 13.61543844 35.76044522 4.71679688 13.15356445 C3.68358045 10.64237721 2.61984938 8.14727416 1.5390625 5.65625 C0 2 0 2 0 0 Z " fill="#0B9D79" transform="translate(605,518)"/>
<path d="M0 0 C1.65 0 3.3 0 5 0 C5.66 2.31 6.32 4.62 7 7 C7.9075 6.690625 8.815 6.38125 9.75 6.0625 C10.8225 5.711875 11.895 5.36125 13 5 C13.721875 4.7525 14.44375 4.505 15.1875 4.25 C17 4 17 4 20 6 C20.29296875 8.1640625 20.29296875 8.1640625 20.1875 10.625 C20.14689453 11.85089844 20.14689453 11.85089844 20.10546875 13.1015625 C20.07066406 13.72804688 20.03585937 14.35453125 20 15 C21.7015625 15.2165625 21.7015625 15.2165625 23.4375 15.4375 C27 16 27 16 28 17 C28.3125 19.375 28.3125 19.375 28 22 C26.68662604 23.0260734 25.35335895 24.02727325 24 25 C24 26.32 24 27.64 24 29 C25.32 29.66 26.64 30.32 28 31 C28.125 33.375 28.125 33.375 28 36 C27.34 36.66 26.68 37.32 26 38 C22.875 37.625 22.875 37.625 20 37 C20.02320313 37.69867187 20.04640625 38.39734375 20.0703125 39.1171875 C20.08835937 40.02726563 20.10640625 40.93734375 20.125 41.875 C20.14820313 42.77992188 20.17140625 43.68484375 20.1953125 44.6171875 C20 47 20 47 18 49 C15.6875 48.6875 15.6875 48.6875 13 48 C11.6078125 47.7215625 11.6078125 47.7215625 10.1875 47.4375 C9.465625 47.293125 8.74375 47.14875 8 47 C7.34 48.98 6.68 50.96 6 53 C3.69 53 1.38 53 -1 53 C-1.66 51.02 -2.32 49.04 -3 47 C-4.32 47 -5.64 47 -7 47 C-7.33 47.66 -7.66 48.32 -8 49 C-10.375 49.125 -10.375 49.125 -13 49 C-13.66 48.34 -14.32 47.68 -15 47 C-14.70764733 44.66117862 -14.37400786 42.32716 -14 40 C-14.33 39.34 -14.66 38.68 -15 38 C-15.94875 38.061875 -16.8975 38.12375 -17.875 38.1875 C-18.90625 38.125625 -19.9375 38.06375 -21 38 C-23 35 -23 35 -22.625 32.3125 C-22.41875 31.549375 -22.2125 30.78625 -22 30 C-21.01 29.67 -20.02 29.34 -19 29 C-19.27034634 26.56282742 -19.27034634 26.56282742 -20 24 C-20.99 23.34 -21.98 22.68 -23 22 C-22.67 20.02 -22.34 18.04 -22 16 C-18.535 15.505 -18.535 15.505 -15 15 C-15.0928125 13.1128125 -15.0928125 13.1128125 -15.1875 11.1875 C-15.18060372 7.29799613 -15.18060372 7.29799613 -13.75 4.9375 C-12 4 -12 4 -10.125 4.25 C-9.42375 4.4975 -8.7225 4.745 -8 5 C-6.33480481 5.34060811 -4.66842534 5.67558396 -3 6 C-2.01 4.02 -1.02 2.04 0 0 Z " fill="#40B296" transform="translate(486,484)"/>
<path d="M0 0 C4.81750492 4.94770776 7.60320144 9.94839421 7.875 16.9375 C7.49550801 24.08792796 5.16813637 28.95381748 -0.125 33.75 C-5.52501418 38.23539461 -10.82874516 38.87571964 -17.67578125 38.7578125 C-23.47307704 38.02093184 -27.02546931 35.08195044 -31 31 C-35.12784552 24.57890698 -36.94902854 19.02827312 -35.6875 11.375 C-32.97161674 4.55511537 -27.5519804 -0.4450367 -21.25 -4 C-13.2577377 -5.94933227 -6.86938913 -4.15358413 0 0 Z " fill="#76C8B4" transform="translate(592.6875,438.625)"/>
<path d="M0 0 C1.9375 0.3125 1.9375 0.3125 4 1 C4.33 1.99 4.66 2.98 5 4 C6.98 4 8.96 4 11 4 C11.68707555 6.49064888 12 8.37886292 12 11 C14.44496043 12.71711243 14.44496043 12.71711243 17 14 C16 17 16 17 14 18 C14.495 21.96 14.495 21.96 15 26 C12 27 12 27 9 27 C8.67 28.98 8.34 30.96 8 33 C5.36 32.67 2.72 32.34 0 32 C-0.33 32.66 -0.66 33.32 -1 34 C-2.65 34 -4.3 34 -6 34 C-6 32.68 -6 31.36 -6 30 C-8.31 30.33 -10.62 30.66 -13 31 C-13.59732819 28.23735711 -14 25.83967231 -14 23 C-15.32 22.67 -16.64 22.34 -18 22 C-17.67 20.35 -17.34 18.7 -17 17 C-16.34 17 -15.68 17 -15 17 C-15.33 14.03 -15.66 11.06 -16 8 C-14.02 8 -12.04 8 -10 8 C-10 6.35 -10 4.7 -10 3 C-6.71303767 2.20046862 -5.28976808 1.90341064 -2 3 C-1.34 2.01 -0.68 1.02 0 0 Z " fill="#7ACAB5" transform="translate(436,460)"/>
<path d="M0 0 C3.60003622 1.9102233 5.74840078 4.62260117 8 8 C8.58663955 12.49503031 8.5496803 16.66919506 6.8125 20.875 C1.87841258 26.65979215 1.87841258 26.65979215 -2.5234375 27.45703125 C-7.62483556 27.75752456 -11.10826326 27.51541618 -15.125 24.1875 C-18.51581102 20.90214483 -19.18991248 17.82180682 -19.375 13.1875 C-19.34313885 9.55001885 -19.05084179 7.35840774 -16.75 4.5 C-11.58084347 -0.19923321 -6.87422081 -1.08426196 0 0 Z " fill="#FCFDFD" transform="translate(494,497)"/>
<path d="M0 0 C2.36885675 2.0838815 4.16090867 4.44800248 6 7 C6.78375 7.99 7.5675 8.98 8.375 10 C10.33116002 13.61137234 10.38953152 15.94887218 10 20 C9.67 20.66 9.34 21.32 9 22 C8.34 22 7.68 22 7 22 C7.33 23.65 7.66 25.3 8 27 C4.25 28.125 4.25 28.125 2 27 C0.9275 27.28875 -0.145 27.5775 -1.25 27.875 C-5 28 -5 28 -6.6171875 26.79296875 C-8.23077062 24.94111041 -9.61939393 23.03119303 -11 21 C-11.50144531 20.33871094 -12.00289063 19.67742187 -12.51953125 18.99609375 C-14.88925727 15.66019844 -15.9480336 13.50234189 -16.375 9.375 C-13.90624975 3.3153403 -6.69747198 -1.93482524 0 0 Z " fill="#0D9E7A" transform="translate(359,279)"/>
<path d="M0 0 C1.95703125 2.546875 1.95703125 2.546875 3.8125 5.75 C4.43769531 6.79671875 5.06289063 7.8434375 5.70703125 8.921875 C7.12375859 12.2946277 7.21939535 13.6068999 6 17 C3.21660486 20.5786509 1.2982782 21.14034436 -3 22 C-3.639375 22.66 -4.27875 23.32 -4.9375 24 C-7 26 -7 26 -9.9375 27.0625 C-13 27 -13 27 -15.5625 25.125 C-23 15.58974359 -23 15.58974359 -23 10 C-20.17651607 7.70479139 -16.9101101 6.04332808 -13.75 4.25 C-12.87730469 3.73050781 -12.00460937 3.21101563 -11.10546875 2.67578125 C-10.26113281 2.18980469 -9.41679688 1.70382812 -8.546875 1.203125 C-7.77182617 0.75614258 -6.99677734 0.30916016 -6.19824219 -0.15136719 C-3.60311242 -1.1532187 -2.53287688 -1.09806218 0 0 Z " fill="#0E9F7B" transform="translate(727,363)"/>
<path d="M0 0 C3.26535107 5.60242509 5.10517527 11.58998346 4 18 C-0.85478081 22.60581769 -7.81046543 24.64560727 -14.375 25.375 C-17.52847365 24.92450376 -18.02256518 24.42824897 -20 22 C-21.421875 19.1875 -21.421875 19.1875 -22.75 16 C-23.42289063 14.4221875 -23.42289063 14.4221875 -24.109375 12.8125 C-25 10 -25 10 -24 7 C-22.00634766 5.90917969 -22.00634766 5.90917969 -19.4140625 4.921875 C-18.01800781 4.38820313 -18.01800781 4.38820313 -16.59375 3.84375 C-15.6140625 3.4828125 -14.634375 3.121875 -13.625 2.75 C-12.65304687 2.37359375 -11.68109375 1.9971875 -10.6796875 1.609375 C-3.38900162 -1.12966721 -3.38900162 -1.12966721 0 0 Z " fill="#0E9E7A" transform="translate(745,398)"/>
<path d="M0 0 C5.72687373 0.07143709 11.25405339 2.63419633 16.1875 5.375 C18.52300893 7.88187751 19.20372413 8.66113846 19.125 12.125 C17.93669549 16.24445564 16.29404633 21.26845367 13.1875 24.375 C5.78302543 25.2132424 -0.32183486 22.91990173 -6.8125 19.375 C-9.31599704 15.61975444 -8.94316362 13.97374147 -8.3671875 9.66796875 C-7.26255529 5.101637 -4.87291016 0.64972136 0 0 Z " fill="#0E9E7A" transform="translate(258.8125,398.625)"/>
<path d="M0 0 C5.56796995 1.1722042 10.70946782 2.92157664 16 5 C17.96005927 12.02354571 15.85597345 18.43897991 13 25 C11.08984375 27.3984375 11.08984375 27.3984375 9 29 C3.12618509 28.90210308 -1.60030082 27.21773359 -7 25 C-6.3587977 19.50606211 -5.0961052 14.41494865 -3.5 9.125 C-3.27441406 8.35414063 -3.04882812 7.58328125 -2.81640625 6.7890625 C-1.13375235 1.13375235 -1.13375235 1.13375235 0 0 Z " fill="#F7FCFB" transform="translate(422,728)"/>
<path d="M0 0 C5.46625055 1.98066627 9.90837044 4.8563582 14 9 C14.8125 12.125 14.8125 12.125 14 15 C12.125 17.875 12.125 17.875 10 20 C9.34 20 8.68 20 8 20 C7.9175 20.721875 7.835 21.44375 7.75 22.1875 C6.82190728 25.66784771 5.57817117 27.4934447 3 30 C-0.47533253 30.59015081 -1.84848177 30.09160616 -4.89453125 28.25 C-5.85746094 27.5075 -6.82039063 26.765 -7.8125 26 C-8.78832031 25.2575 -9.76414062 24.515 -10.76953125 23.75 C-11.50558594 23.1725 -12.24164063 22.595 -13 22 C-12.52817812 16.93513656 -10.01844167 13.81349171 -7.0625 9.875 C-6.15734818 8.64337899 -5.25239317 7.41161332 -4.34765625 6.1796875 C-3.18556641 4.60574219 -3.18556641 4.60574219 -2 3 C-1.34 2.01 -0.68 1.02 0 0 Z " fill="#17A27F" transform="translate(360,695)"/>
<path d="M0 0 C2.9922872 2.38585033 4.47040662 5.4419093 6.1875 8.8125 C6.71730469 9.82957031 7.24710938 10.84664062 7.79296875 11.89453125 C9.08748342 15.22507871 9.40654134 17.46158462 9 21 C6.75 23.25 6.75 23.25 4 25 C3.38125 25.4125 2.7625 25.825 2.125 26.25 C-0.91489151 27.32290289 -3.80076288 27.04453694 -7 27 C-8.35207839 24.65498903 -9.68118112 22.30112641 -11 19.9375 C-11.3815625 19.28072266 -11.763125 18.62394531 -12.15625 17.94726562 C-14.68807124 13.35833963 -15.43578926 10.23628028 -15 5 C-5.33203125 -1.015625 -5.33203125 -1.015625 0 0 Z " fill="#F7FCFA" transform="translate(611,716)"/>
<path d="M0 0 C4.92153625 0.31548309 7.89784427 4.23909553 11.1171875 7.5859375 C13 10 13 10 13.875 13.75 C12.76348203 17.87849532 11.4289717 19.46554266 8 22 C4.6875 22.8125 4.6875 22.8125 2 23 C1.01 25.97 0.02 28.94 -1 32 C-2.32 31.34 -3.64 30.68 -5 30 C-4.48041715 25.62065881 -3.94324258 21.31196609 -3 17 C-3.99 16.34 -4.98 15.68 -6 15 C-7.98 16.98 -9.96 18.96 -12 21 C-13.32 20.34 -14.64 19.68 -16 19 C-14.29906612 14.68388029 -11.13515241 11.68761387 -8 8.375 C-7.18015625 7.49714844 -7.18015625 7.49714844 -6.34375 6.6015625 C-4.25718606 4.37180299 -2.15944305 2.15944305 0 0 Z " fill="#0C9E79" transform="translate(673,301)"/>
<path d="M0 0 C2.375 2.25 2.375 2.25 4 5 C3.19491753 12.15284808 -2.54546647 20.10627287 -7.75 24.8125 C-8.8225 25.534375 -9.895 26.25625 -11 27 C-11.99 26.67 -12.98 26.34 -14 26 C-14.6875 23.9375 -14.6875 23.9375 -15 22 C-14.01 21.67 -13.02 21.34 -12 21 C-14.475 17.04 -14.475 17.04 -17 13 C-18.98 13.33 -20.96 13.66 -23 14 C-23.66 12.68 -24.32 11.36 -25 10 C-17.86297281 3.56786439 -9.93084751 -0.88608572 0 0 Z " fill="#0E9E7A" transform="translate(707,334)"/>
<path d="M0 0 C2.97 0 5.94 0 9 0 C11.62757025 5.94059361 13.14145175 10.41930172 13.125 17 C13.12886719 18.546875 13.12886719 18.546875 13.1328125 20.125 C13.01863671 22.59657009 12.71350656 24.6442958 12 27 C10.35 27 8.7 27 7 27 C7 25.02 7 23.04 7 21 C5.906875 21.020625 4.81375 21.04125 3.6875 21.0625 C0 21 0 21 -3 20 C-3.33 21.65 -3.66 23.3 -4 25 C-5.32 25 -6.64 25 -8 25 C-8.60669624 15.09062814 -4.83001078 8.4191097 0 0 Z " fill="#0D9E7A" transform="translate(534,238)"/>
<path d="M0 0 C1.9375 1.3125 1.9375 1.3125 3 3 C3 3.99 3 4.98 3 6 C0.78474988 6.71204468 -0.59650874 7.10759767 -2.875 6.5 C-5.62795614 5.70798667 -5.62795614 5.70798667 -11 7 C-9.68 11.62 -8.36 16.24 -7 21 C-4.03 20.67 -1.06 20.34 2 20 C2 18.35 2 16.7 2 15 C0.02 15.33 -1.96 15.66 -4 16 C-4.33 14.35 -4.66 12.7 -5 11 C-3.70990357 10.49596232 -2.41786211 9.99690074 -1.125 9.5 C-0.40570313 9.2215625 0.31359375 8.943125 1.0546875 8.65625 C3 8 3 8 5 8 C7.27611503 12.40997287 7.8494418 17.12255999 7 22 C4.20462319 25.42532087 1.16429889 26.74470418 -3.21875 27.26171875 C-7.8326349 27.47893086 -7.8326349 27.47893086 -10 27 C-12.80859627 24.15108895 -13.97343018 20.8689697 -15.25 17.125 C-15.78367187 15.61292969 -15.78367187 15.61292969 -16.328125 14.0703125 C-17.07508006 10.65690158 -16.84494407 8.37011978 -16 5 C-12.50187748 -0.15512793 -5.70576928 -0.53828012 0 0 Z " fill="#11A07C" transform="translate(429,246)"/>
<path d="M0 0 C4.28383762 1.3282086 5.9783526 2.82522516 8.3125 6.625 C8.82425781 7.44226563 9.33601562 8.25953125 9.86328125 9.1015625 C10.23839844 9.72804687 10.61351562 10.35453125 11 11 C13.10232344 8.1315587 13.10232344 8.1315587 14 5 C16.475 5.495 16.475 5.495 19 6 C17.56933303 14.1698614 15.35862583 22.05394988 13 30 C9.25 31.125 9.25 31.125 7 30 C7.13019531 29.2265625 7.26039063 28.453125 7.39453125 27.65625 C8.29213015 20.87811999 8.27744075 16.8896481 4.12890625 11.328125 C3.75636719 10.88984375 3.38382813 10.4515625 3 10 C2.566875 11.155 2.13375 12.31 1.6875 13.5 C-0.65625 19.75 -0.65625 19.75 -3 26 C-4.65 25.67 -6.3 25.34 -8 25 C-6.87613072 19.17631373 -5.3072912 13.62007724 -3.4375 8 C-3.21553955 7.3289624 -2.9935791 6.6579248 -2.76489258 5.96655273 C-1.12932926 1.12932926 -1.12932926 1.12932926 0 0 Z " fill="#109F7C" transform="translate(569,244)"/>
<path d="M0 0 C3.43789397 0.52376342 5.00825325 1.89856497 7.41015625 4.3671875 C8.28515625 6.9921875 8.28515625 6.9921875 8.41015625 9.3671875 C8.08015625 10.0271875 7.75015625 10.6871875 7.41015625 11.3671875 C11.04015625 12.0271875 14.67015625 12.6871875 18.41015625 13.3671875 C18.08015625 14.3571875 17.75015625 15.3471875 17.41015625 16.3671875 C16.50652344 16.26019531 15.60289062 16.15320313 14.671875 16.04296875 C12.90263672 15.86314453 12.90263672 15.86314453 11.09765625 15.6796875 C9.34001953 15.48826172 9.34001953 15.48826172 7.546875 15.29296875 C4.42041006 15.05720965 4.42041006 15.05720965 2.4921875 16.84765625 C2.13511719 17.34910156 1.77804687 17.85054687 1.41015625 18.3671875 C2.91053813 22.18634138 5.24281043 23.86665133 8.41015625 26.3671875 C8.41015625 27.0271875 8.41015625 27.6871875 8.41015625 28.3671875 C5.35810349 27.77425291 3.47140912 26.88579387 1.0625 24.93359375 C0.45728516 24.44955078 -0.14792969 23.96550781 -0.77148438 23.46679688 C-1.39216797 22.95955078 -2.01285156 22.45230469 -2.65234375 21.9296875 C-3.89252698 20.93011774 -5.13338822 19.93138849 -6.375 18.93359375 C-6.920354 18.48959229 -7.46570801 18.04559082 -8.02758789 17.58813477 C-9.49434513 16.44182238 -11.04093148 15.39979568 -12.58984375 14.3671875 C-11.23186527 10.4464599 -9.49259992 7.68527922 -6.77734375 4.5546875 C-6.11089844 3.76449219 -5.44445312 2.97429688 -4.7578125 2.16015625 C-2.58984375 0.3671875 -2.58984375 0.3671875 0 0 Z " fill="#15A17E" transform="translate(690.58984375,646.6328125)"/>
<path d="M0 0 C0 1.32 0 2.64 0 4 C-2.58193977 4.67250524 -5.16532071 5.33817901 -7.75 6 C-8.47960937 6.19078125 -9.20921875 6.3815625 -9.9609375 6.578125 C-13.44571646 7.46515964 -16.38123722 8 -20 8 C-19.34 10.97 -18.68 13.94 -18 17 C-12.09961578 16.31918644 -6.28462436 15.37240946 -0.44140625 14.3046875 C0.36425781 14.20414062 1.16992188 14.10359375 2 14 C3 15 3 15 3.0625 17.5625 C3.041875 18.366875 3.02125 19.17125 3 20 C-12.59954376 23.72791373 -12.59954376 23.72791373 -20 23 C-23.61361045 20.05651919 -24.72289601 16.52260187 -25.2265625 11.9375 C-25.44310301 6.58304379 -25.44310301 6.58304379 -23.73608398 4.33691406 C-21.76653904 2.82021766 -20.32850337 2.33361743 -17.91015625 1.796875 C-16.73356445 1.53390625 -16.73356445 1.53390625 -15.53320312 1.265625 C-14.71787109 1.09546875 -13.90253906 0.9253125 -13.0625 0.75 C-11.84530273 0.4715625 -11.84530273 0.4715625 -10.60351562 0.1875 C-6.66107639 -0.66631785 -3.92231975 -1.22451833 0 0 Z " fill="#109F7B" transform="translate(758,436)"/>
<path d="M0 0 C4.62026414 0.42701147 8.25631039 2.58283302 12.1875 4.875 C12.81591797 5.22691406 13.44433594 5.57882812 14.09179688 5.94140625 C17.21593545 7.73903893 18.96898023 8.95347034 21 12 C21 17.60143503 19.0243814 21.03632873 15.9609375 25.49609375 C14 27 14 27 10.81640625 27.50390625 C5.95188266 26.86160989 2.70356204 25.02328208 -1.4375 22.5 C-2.16904297 22.07074219 -2.90058594 21.64148438 -3.65429688 21.19921875 C-5.44421563 20.14632537 -7.22326854 19.07499718 -9 18 C-8.625 16.0625 -8.625 16.0625 -8 14 C-7.34 13.67 -6.68 13.34 -6 13 C-3.45723945 14.2463357 -1.01946406 15.53913381 1.4375 16.9375 C6.4004925 19.97038111 6.4004925 19.97038111 12 21 C12.99 18.69 13.98 16.38 15 14 C13.92878906 13.39671875 12.85757812 12.7934375 11.75390625 12.171875 C10.35638476 11.36525186 8.95927025 10.55792332 7.5625 9.75 C6.85544922 9.35425781 6.14839844 8.95851563 5.41992188 8.55078125 C4.74638672 8.15761719 4.07285156 7.76445312 3.37890625 7.359375 C2.7557251 7.00327148 2.13254395 6.64716797 1.49047852 6.28027344 C-0.40675001 4.65061474 -0.71023418 3.45191269 -1 1 C-0.67 0.67 -0.34 0.34 0 0 Z " fill="#0E9E7A" transform="translate(273,362)"/>
<path d="M0 0 C2.70055621 2.48159219 3.81663748 4.35117877 4.8125 7.875 C3.48558867 12.97850511 -0.76589777 15.16046319 -5 18 C-4.23667604 21.48312875 -2.84552679 23.95086878 -1 27 C-1 27.66 -1 28.32 -1 29 C-1.99 29 -2.98 29 -4 29 C-5.54980469 27.3034668 -5.54980469 27.3034668 -7.171875 24.94921875 C-7.75324219 24.10552734 -8.33460938 23.26183594 -8.93359375 22.39257812 C-9.53300781 21.49990234 -10.13242187 20.60722656 -10.75 19.6875 C-11.36488281 18.80642578 -11.97976563 17.92535156 -12.61328125 17.01757812 C-13.18949219 16.17001953 -13.76570312 15.32246094 -14.359375 14.44921875 C-14.89014648 13.66893311 -15.42091797 12.88864746 -15.96777344 12.0847168 C-17 10 -17 10 -16 7 C-13.671875 5.17578125 -13.671875 5.17578125 -10.75 3.3125 C-9.31914063 2.37857422 -9.31914063 2.37857422 -7.859375 1.42578125 C-4.87055427 -0.06454603 -3.27984584 -0.48777194 0 0 Z " fill="#15A17E" transform="translate(642,697)"/>
<path d="M0 0 C2.475 0.99 2.475 0.99 5 2 C3.53181332 5.10742423 1.79975 7.90471739 -0.125 10.75 C-0.93324219 11.94882812 -0.93324219 11.94882812 -1.7578125 13.171875 C-2.16773438 13.77515625 -2.57765625 14.3784375 -3 15 C-1.68 15.33 -0.36 15.66 1 16 C2.98 13.36 4.96 10.72 7 8 C9.475 8.495 9.475 8.495 12 9 C11.61560303 12.33144043 10.67036509 13.37672562 8.375 16 C5.81723578 18.64154554 5.81723578 18.64154554 5.875 21.125 C7.44750905 23.74584841 9.53889714 25.23305435 12 27 C11.34 28.32 10.68 29.64 10 31 C4.65365124 29.41824001 0.8822769 25.88376781 -3.3125 22.375 C-4.05306641 21.76398438 -4.79363281 21.15296875 -5.55664062 20.5234375 C-7.37580451 19.02116023 -9.18998451 17.513276 -11 16 C-9.20675389 12.24339747 -6.89717166 9.04458673 -4.375 5.75 C-3.95476562 5.19570313 -3.53453125 4.64140625 -3.1015625 4.0703125 C-2.07061281 2.71133337 -1.03570089 1.35536165 0 0 Z " fill="#0F9F7B" transform="translate(296,329)"/>
<path d="M0 0 C0 1.65 0 3.3 0 5 C-2.31 5 -4.62 5 -7 5 C-6.855625 5.65226563 -6.71125 6.30453125 -6.5625 6.9765625 C-5.55372706 11.72620177 -4.74284694 16.11409188 -5 21 C-2.36 21 0.28 21 3 21 C3 22.65 3 24.3 3 26 C-6.405 26.99 -6.405 26.99 -16 28 C-16.33 26.35 -16.66 24.7 -17 23 C-13.535 22.505 -13.535 22.505 -10 22 C-10.66 17.05 -11.32 12.1 -12 7 C-14.64 7 -17.28 7 -20 7 C-20 5.35 -20 3.7 -20 2 C-13.2168636 0.57997892 -6.93302093 -0.22731216 0 0 Z " fill="#109F7C" transform="translate(470,237)"/>
<path d="M0 0 C1.32 0.66 2.64 1.32 4 2 C3.690625 2.5775 3.38125 3.155 3.0625 3.75 C1.61123571 6.76092984 1.61123571 6.76092984 1 10 C2.63788102 12.24522717 2.63788102 12.24522717 4.9375 14.25 C5.68902344 14.95640625 6.44054687 15.6628125 7.21484375 16.390625 C7.80394531 16.92171875 8.39304687 17.4528125 9 18 C9.5775 17.67 10.155 17.34 10.75 17 C13 16 13 16 17 16 C17.33 17.32 17.66 18.64 18 20 C16.09692171 21.87016341 14.17977121 23.72024167 12.25 25.5625 C11.71117187 26.09552734 11.17234375 26.62855469 10.6171875 27.17773438 C9.015625 28.69140625 9.015625 28.69140625 6 31 C3.87402344 30.83178711 3.87402344 30.83178711 2 30 C1.67 29.01 1.34 28.02 1 27 C2.32 26.01 3.64 25.02 5 24 C3.59155282 20.78475695 1.89655214 18.67816132 -0.625 16.25 C-1.57246094 15.32960938 -1.57246094 15.32960938 -2.5390625 14.390625 C-3.02117187 13.93171875 -3.50328125 13.4728125 -4 13 C-4.7425 13.53625 -5.485 14.0725 -6.25 14.625 C-7.1575 15.07875 -8.065 15.5325 -9 16 C-11.3125 15.1875 -11.3125 15.1875 -13 14 C-11.43416404 9.96278439 -8.55826135 7.52929418 -5.375 4.75 C-4.859375 4.29109375 -4.34375 3.8321875 -3.8125 3.359375 C-2.5465398 2.23407704 -1.27392058 1.11627823 0 0 Z " fill="#0C9E79" transform="translate(324,301)"/>
<path d="M0 0 C4.50727647 0.60266785 7.8587963 2.36599794 11.8125 4.5625 C12.7087207 5.0565332 12.7087207 5.0565332 13.62304688 5.56054688 C15.08533998 6.36773267 16.5431399 7.18304917 18 8 C17.67 9.32 17.34 10.64 17 12 C14.23723823 11.47731534 11.6739124 10.89130413 9 10 C8.70996094 10.88751953 8.70996094 10.88751953 8.4140625 11.79296875 C7.05585281 15.9146645 5.67949415 19.9950524 4 24 C6.475 24.99 6.475 24.99 9 26 C8.67 27.65 8.34 29.3 8 31 C3.49272353 30.39733215 0.1412037 28.63400206 -3.8125 26.4375 C-4.40998047 26.10814453 -5.00746094 25.77878906 -5.62304688 25.43945312 C-7.08533998 24.63226733 -8.5431399 23.81695083 -10 23 C-9.67 21.68 -9.34 20.36 -9 19 C-6.23723823 19.52268466 -3.6739124 20.10869587 -1 21 C-0.7525 20.175 -0.505 19.35 -0.25 18.5 C1.18704811 14.47626529 3.02354515 10.78020976 5 7 C3.02 6.34 1.04 5.68 -1 5 C-0.67 3.35 -0.34 1.7 0 0 Z " fill="#0C9E79" transform="translate(606,258)"/>
<path d="M0 0 C2.5 1.5625 2.5 1.5625 4 4 C4.70476018 8.93332128 4.77041398 10.84437903 2 15 C-2.13665594 17.75777063 -4.08692938 17.62388198 -9 17 C-11.4375 16.0625 -11.4375 16.0625 -13 14 C-13.89798468 10.9538951 -14.25022004 8.16945387 -14 5 C-10.28734596 -1.14508254 -6.74834067 -1.68041685 0 0 Z " fill="#FCFDFD" transform="translate(440,469)"/>
<path d="M0 0 C1.98 0 3.96 0 6 0 C6 6.93 6 13.86 6 21 C10.62 21 15.24 21 20 21 C20 22.65 20 24.3 20 26 C13.4 26 6.8 26 0 26 C0 17.42 0 8.84 0 0 Z " fill="#18A280" transform="translate(490,235)"/>
<path d="M0 0 C5.56796995 1.1722042 10.70946782 2.92157664 16 5 C17.96005927 12.02354571 15.85597345 18.43897991 13 25 C11.08984375 27.3984375 11.08984375 27.3984375 9 29 C3.12618509 28.90210308 -1.60030082 27.21773359 -7 25 C-6.3587977 19.50606211 -5.0961052 14.41494865 -3.5 9.125 C-3.27441406 8.35414063 -3.04882812 7.58328125 -2.81640625 6.7890625 C-1.13375235 1.13375235 -1.13375235 1.13375235 0 0 Z M2 4 C-0.70071112 10.27980887 -2.70024676 16.28460827 -4 23 C-2.60993485 23.53603819 -1.21257351 24.05317473 0.1875 24.5625 C0.96480469 24.85253906 1.74210937 25.14257812 2.54296875 25.44140625 C5.3628632 26.08249513 7.23136845 25.7425637 10 25 C10.70194375 22.94237091 11.38601697 20.87863969 12.0625 18.8125 C12.44535156 17.66394531 12.82820313 16.51539063 13.22265625 15.33203125 C13.99406151 12.02545492 13.96093996 10.20917686 13 7 C11.54293274 6.49632243 10.08429904 5.99717444 8.625 5.5 C7.81289063 5.2215625 7.00078125 4.943125 6.1640625 4.65625 C4.05790758 3.90326695 4.05790758 3.90326695 2 4 Z " fill="#1BA482" transform="translate(422,728)"/>
<path d="M0 0 C1.65 0 3.3 0 5 0 C4.67 2.97 4.34 5.94 4 9 C5.44375 9.103125 6.8875 9.20625 8.375 9.3125 C13.83752256 9.84314505 18.81594958 11.24624677 24 13 C23.67 14.32 23.34 15.64 23 17 C15.90593106 16.41523944 8.98436101 15.36766005 2 14 C1.67 16.31 1.34 18.62 1 21 C-0.65 20.67 -2.3 20.34 -4 20 C-3.42978625 13.04339229 -1.98697306 6.68572695 0 0 Z " fill="#109F7B" transform="translate(242,435)"/>
<path d="M0 0 C2.60452271 0.14086602 5.20850197 0.28748464 7.8125 0.4375 C8.91948242 0.49647461 8.91948242 0.49647461 10.04882812 0.55664062 C13.23071342 0.74381035 15.96162378 0.98720793 19 2 C19 2.99 19 3.98 19 5 C16.89551062 4.85890014 14.7914123 4.71195825 12.6875 4.5625 C11.51574219 4.48128906 10.34398437 4.40007813 9.13671875 4.31640625 C6 4 6 4 3 3 C3 5.64 3 8.28 3 11 C8.94 11.99 8.94 11.99 15 13 C15 13.99 15 14.98 15 16 C13.0412957 15.85923685 11.08303907 15.7122324 9.125 15.5625 C8.03445313 15.48128906 6.94390625 15.40007813 5.8203125 15.31640625 C3 15 3 15 1 14 C1.020625 15.11375 1.04125 16.2275 1.0625 17.375 C1 21 1 21 0 23 C1.37285156 23.09087891 1.37285156 23.09087891 2.7734375 23.18359375 C3.96195312 23.26738281 5.15046875 23.35117187 6.375 23.4375 C7.55835938 23.51871094 8.74171875 23.59992187 9.9609375 23.68359375 C13 24 13 24 15 25 C15 25.66 15 26.32 15 27 C12.37461716 26.85946128 9.74982573 26.71281053 7.125 26.5625 C6.37863281 26.52318359 5.63226563 26.48386719 4.86328125 26.44335938 C-0.7734375 26.11328125 -0.7734375 26.11328125 -3 25 C-2.53007706 16.52902072 -1.74640116 8.30812204 0 0 Z " fill="#28A988" transform="translate(456,738)"/>
<path d="M0 0 C0 0.66 0 1.32 0 2 C-5.24385089 3.7479503 -9.47322267 4.19392201 -15 4 C-14.67 6.97 -14.34 9.94 -14 13 C-12.989375 12.67 -11.97875 12.34 -10.9375 12 C-7.24520089 10.92998679 -3.84751793 10.84295845 0 11 C0 11.99 0 12.98 0 14 C-6.435 14.495 -6.435 14.495 -13 15 C-12.67 17.97 -12.34 20.94 -12 24 C-10.63875 23.67 -9.2775 23.34 -7.875 23 C-4.17540494 22.17007504 -0.80751232 21.80474296 3 22 C3 22.99 3 23.98 3 25 C1.12612523 25.3396019 -0.74916697 25.67138691 -2.625 26 C-3.66914062 26.185625 -4.71328125 26.37125 -5.7890625 26.5625 C-8.90574865 26.98715797 -11.85930812 27.07545206 -15 27 C-15.50881977 24.3347536 -16.00720141 21.66821581 -16.5 19 C-16.64308594 18.25621094 -16.78617188 17.51242187 -16.93359375 16.74609375 C-17.84593467 11.74994107 -18.22683479 7.08109937 -18 2 C-14.55062273 -1.44937727 -4.63127388 -0.09648487 0 0 Z " fill="#1CA482" transform="translate(545,738)"/>
<path d="M0 0 C-0.53675903 3.85103301 -2.11600923 5.31797587 -5.0625 7.75 C-6.16271484 8.67039062 -6.16271484 8.67039062 -7.28515625 9.609375 C-7.85105469 10.06828125 -8.41695312 10.5271875 -9 11 C-8.80528889 12.94999129 -8.80528889 12.94999129 -8 15 C-6.0162233 16.28436734 -6.0162233 16.28436734 -4 17 C-3.45730469 16.48308594 -2.91460938 15.96617187 -2.35546875 15.43359375 C-1.64003906 14.77488281 -0.92460938 14.11617187 -0.1875 13.4375 C0.87404297 12.44556641 0.87404297 12.44556641 1.95703125 11.43359375 C2.63121094 10.96050781 3.30539062 10.48742187 4 10 C4.99 10.33 5.98 10.66 7 11 C6.59007812 11.45890625 6.18015625 11.9178125 5.7578125 12.390625 C5.21898437 13.00421875 4.68015625 13.6178125 4.125 14.25 C3.59132813 14.85328125 3.05765625 15.4565625 2.5078125 16.078125 C1.0202513 17.97418746 -0.00322436 19.81290005 -1 22 C0.22809091 23.64555699 0.22809091 23.64555699 2 25 C5.62207754 24.64004198 7.18322794 23.07226437 9.5625 20.4375 C11.31640625 18.49609375 11.31640625 18.49609375 13 17 C13.99 17 14.98 17 16 17 C14.41332422 20.90285767 11.86649519 23.33520982 8.875 26.25 C7.96492187 27.14203125 7.05484375 28.0340625 6.1171875 28.953125 C5.41851563 29.62859375 4.71984375 30.3040625 4 31 C0.6712479 29.89041597 -0.01489699 29.07455496 -2.1875 26.4375 C-5.40528925 22.59958006 -8.87869274 19.21401626 -12.59375 15.859375 C-14 14 -14 14 -14.05859375 12.09375 C-12.50373984 9.01846699 -10.11736988 6.98348218 -7.5625 4.75 C-7.05912109 4.29109375 -6.55574219 3.8321875 -6.03710938 3.359375 C-2.27280971 0 -2.27280971 0 0 0 Z " fill="#1BA482" transform="translate(668,672)"/>
<path d="M0 0 C2 0 2 0 4.1875 2.0625 C4.61804688 2.51367188 5.04859375 2.96484375 5.4921875 3.4296875 C6.59921926 4.58260659 7.73369257 5.70933763 8.8828125 6.8203125 C9.51960938 7.43648437 10.15640625 8.05265625 10.8125 8.6875 C11.41707031 9.26886719 12.02164062 9.85023438 12.64453125 10.44921875 C14 12 14 12 14 14 C10.37661194 13.41636702 8.58383402 11.98826783 5.9375 9.5 C3.4944855 7.21172538 2.21948729 6.07316243 -1 5 C-2.4606285 7.64738916 -3 8.89448334 -3 12 C-1.23743069 13.90685556 -1.23743069 13.90685556 1 15.6875 C1.7425 16.31011719 2.485 16.93273437 3.25 17.57421875 C3.8275 18.04472656 4.405 18.51523437 5 19 C4.67 19.66 4.34 20.32 4 21 C0.05860922 19.33248852 -2.7892812 16.77289351 -6 14 C-9.16115776 15.36983503 -9.9927092 15.9890638 -12 19 C-11.278125 19.61488281 -10.55625 20.22976563 -9.8125 20.86328125 C-8.884375 21.67152344 -7.95625 22.47976563 -7 23.3125 C-6.071875 24.11300781 -5.14375 24.91351562 -4.1875 25.73828125 C-2 28 -2 28 -2 31 C-6.18283942 29.61564389 -8.74895619 27.71004652 -11.875 24.625 C-12.67679687 23.85414063 -13.47859375 23.08328125 -14.3046875 22.2890625 C-16 20 -16 20 -16.0546875 18.015625 C-14.569272 15.17683093 -12.56977521 13.32810012 -10.25 11.125 C-7.33337835 8.30837681 -4.51541811 5.55715544 -2 2.375 C-1.34 1.59125 -0.68 0.8075 0 0 Z " fill="#1CA482" transform="translate(334,672)"/>
<path d="M0 0 C2.9922872 2.38585033 4.47040662 5.4419093 6.1875 8.8125 C6.71730469 9.82957031 7.24710938 10.84664062 7.79296875 11.89453125 C9.08748342 15.22507871 9.40654134 17.46158462 9 21 C6.75 23.25 6.75 23.25 4 25 C3.38125 25.4125 2.7625 25.825 2.125 26.25 C-0.91489151 27.32290289 -3.80076288 27.04453694 -7 27 C-8.35207839 24.65498903 -9.68118112 22.30112641 -11 19.9375 C-11.3815625 19.28072266 -11.763125 18.62394531 -12.15625 17.94726562 C-14.68807124 13.35833963 -15.43578926 10.23628028 -15 5 C-5.33203125 -1.015625 -5.33203125 -1.015625 0 0 Z M-9.3125 4.9375 C-10.00988281 5.31777344 -10.70726562 5.69804688 -11.42578125 6.08984375 C-11.94527344 6.39019531 -12.46476563 6.69054687 -13 7 C-12.37954537 11.23322844 -10.89476441 14.52290295 -8.9375 18.3125 C-8.38964844 19.38113281 -7.84179688 20.44976563 -7.27734375 21.55078125 C-6.85582031 22.35902344 -6.43429687 23.16726563 -6 24 C-1.22423661 23.5317879 2.04476345 22.75668002 6 20 C5.54821002 14.27732688 3.43533017 8.60646546 0 4 C-3.77477435 2.56374439 -5.85165447 3.00177284 -9.3125 4.9375 Z " fill="#18A380" transform="translate(611,716)"/>
<path d="M0 0 C0.66 0 1.32 0 2 0 C1.46240854 4.00004493 -0.46828634 5.81138662 -3.3125 8.5625 C-4.09238281 9.32691406 -4.87226563 10.09132813 -5.67578125 10.87890625 C-7.70866024 12.73412186 -9.76468706 14.3989635 -12 16 C-9.03 16 -6.06 16 -3 16 C-3.165 17.11375 -3.33 18.2275 -3.5 19.375 C-4.0455458 22.72032033 -4.0455458 22.72032033 -4 25 C-3.24074219 24.44570313 -2.48148437 23.89140625 -1.69921875 23.3203125 C-0.70535156 22.59585938 0.28851563 21.87140625 1.3125 21.125 C2.29863281 20.40570312 3.28476562 19.68640625 4.30078125 18.9453125 C6.17523115 17.5944065 8.07752993 16.28164671 10 15 C12.1875 15.375 12.1875 15.375 14 16 C9.94209847 19.34502694 5.72205957 22.36210312 1.375 25.3125 C0.70726562 25.77978516 0.03953125 26.24707031 -0.6484375 26.72851562 C-2.3797612 27.90062177 -4.18637429 28.959771 -6 30 C-6.99 29.67 -7.98 29.34 -9 29 C-8.51421457 25.87709365 -8.0013988 23.00419641 -7 20 C-7.93972656 20.05220703 -7.93972656 20.05220703 -8.8984375 20.10546875 C-9.71570313 20.13253906 -10.53296875 20.15960937 -11.375 20.1875 C-12.18710937 20.22230469 -12.99921875 20.25710938 -13.8359375 20.29296875 C-14.55007813 20.19628906 -15.26421875 20.09960938 -16 20 C-16.66 19.01 -17.32 18.02 -18 17 C-17.49025635 16.52054932 -16.9805127 16.04109863 -16.45532227 15.54711914 C-14.15756291 13.38574089 -11.86002856 11.22412359 -9.5625 9.0625 C-8.76005859 8.30775391 -7.95761719 7.55300781 -7.13085938 6.77539062 C-6.36708984 6.05673828 -5.60332031 5.33808594 -4.81640625 4.59765625 C-4.10943604 3.93258057 -3.40246582 3.26750488 -2.67407227 2.58227539 C-1.77353853 1.73112195 -0.87619153 0.87619153 0 0 Z " fill="#15A17E" transform="translate(310,644)"/>
<path d="M0 0 C0.99 0 1.98 0 3 0 C3.03738281 0.82242188 3.07476562 1.64484375 3.11328125 2.4921875 C3.53980876 9.73479187 4.54735781 16.1665378 7 23 C8.65 23 10.3 23 12 23 C14.74049239 15.36454007 15.63259093 8.08299944 16 0 C16.99 0 17.98 0 19 0 C19.65930781 9.90426838 18.54230933 17.14249681 14 26 C11.03 26 8.06 26 5 26 C0.91445585 17.08475901 -0.72194844 9.80245544 0 0 Z " fill="#17A27F" transform="translate(491,741)"/>
<path d="M0 0 C5.05255964 0.63156995 9.29593201 2.13459373 14 4 C13.54177532 7.46941546 13.10868317 10.67395049 12 14 C6.22621075 13.5188509 2.04140164 11.81532819 -3 9 C-2.44271087 5.65626525 -1.64826111 2.96687001 0 0 Z " fill="#F5FBF9" transform="translate(258,404)"/>
<path d="M0 0 C2.80488922 1.14097189 3.73124039 2.6463312 5.38671875 5.15625 C6.18529297 6.32607422 6.18529297 6.32607422 7 7.51953125 C8.07421875 9.84375 8.07421875 9.84375 7.85546875 12.02734375 C6.76616941 14.55996471 5.44836824 15.48709315 3.07421875 16.84375 C1.75421875 16.84375 0.43421875 16.84375 -0.92578125 16.84375 C-2.84765625 14.65625 -2.84765625 14.65625 -4.67578125 11.84375 C-5.289375 10.915625 -5.90296875 9.9875 -6.53515625 9.03125 C-6.9940625 8.309375 -7.45296875 7.5875 -7.92578125 6.84375 C-6.25225488 3.26714275 -4.48244722 -0.3636874 0 0 Z " fill="#F5FBFA" transform="translate(355.92578125,284.15625)"/>
<path d="M0 0 C0.99 0 1.98 0 3 0 C4.98 6.6 6.96 13.2 9 20 C10.918125 19.505 12.83625 19.01 14.8125 18.5 C18.01998611 17.67226165 20.68455701 17 24 17 C24 17.99 24 18.98 24 20 C15.585 22.475 15.585 22.475 7 25 C4.92528629 20.15900135 3.23694072 15.81714422 1.8125 10.8125 C1.46832031 9.62269531 1.12414062 8.43289063 0.76953125 7.20703125 C0 4 0 4 0 0 Z " fill="#19A380" transform="translate(562,733)"/>
<path d="M0 0 C3.15330554 0.60694155 5.18888867 1.6416665 7.75 3.5625 C8.67039062 4.24505859 8.67039062 4.24505859 9.609375 4.94140625 C10.29773438 5.46541016 10.29773438 5.46541016 11 6 C10.25 10.75 10.25 10.75 8 13 C4.76798416 12.62655279 2.44350897 11.18828083 -0.25 9.4375 C-0.95640625 8.98246094 -1.6628125 8.52742187 -2.390625 8.05859375 C-3.18726563 7.53458984 -3.18726563 7.53458984 -4 7 C-2.79618552 4.50638429 -1.54571278 2.31856917 0 0 Z " fill="#F2FAF8" transform="translate(354,709)"/>
<path d="M0 0 C2.125 1.1875 2.125 1.1875 4.125 6.1875 C1.155 8.4975 -1.815 10.8075 -4.875 13.1875 C-8.875 11.1875 -8.875 11.1875 -10.125 8.5625 C-10.3725 7.77875 -10.62 6.995 -10.875 6.1875 C-3.94805095 0.25748158 -3.94805095 0.25748158 0 0 Z " fill="#F3FAF8" transform="translate(639.875,699.8125)"/>
<path d="M0 0 C1.48976459 0.70726198 2.96662996 1.44173906 4.4375 2.1875 C5.26121094 2.59355469 6.08492188 2.99960937 6.93359375 3.41796875 C9 5 9 5 9.91015625 7.48828125 C10 10 10 10 8 13 C3.00088076 12.52389341 0.02167317 10.96837781 -4 8 C-3.39676766 4.62189888 -2.09807945 2.67744188 0 0 Z " fill="#F4FBF9" transform="translate(361,699)"/>
<path d="M0 0 C4 1 4 1 6 2 C6.375 4.0625 6.375 4.0625 6 7 C4.20822891 9.53572282 2.15761879 11.77174488 0 14 C-2.375 13.25 -2.375 13.25 -5 12 C-5.66 10.68 -6.32 9.36 -7 8 C-4.69 5.36 -2.38 2.72 0 0 Z " fill="#F6FBFA" transform="translate(689,650)"/>
<path d="M0 0 C-2.32828012 2.73488692 -4.05855507 3.50535477 -7.5625 4.16796875 C-8.44164062 4.33876953 -9.32078125 4.50957031 -10.2265625 4.68554688 C-11.14179687 4.85119141 -12.05703125 5.01683594 -13 5.1875 C-13.91523437 5.36474609 -14.83046875 5.54199219 -15.7734375 5.72460938 C-22.49016651 7 -22.49016651 7 -26 7 C-25.67 5.68 -25.34 4.36 -25 3 C-23.81921875 2.79503906 -22.6384375 2.59007812 -21.421875 2.37890625 C-19.86457003 2.10684695 -18.3072791 1.83470732 -16.75 1.5625 C-15.97269531 1.42779297 -15.19539062 1.29308594 -14.39453125 1.15429688 C-13.64042969 1.02216797 -12.88632812 0.89003906 -12.109375 0.75390625 C-11.07248535 0.57323608 -11.07248535 0.57323608 -10.01464844 0.38891602 C-7.97118929 0.02031729 -7.97118929 0.02031729 -5.88378906 -0.57446289 C-3.62195472 -1.08539825 -2.1832444 -0.70175713 0 0 Z " fill="#1FA584" transform="translate(554,701)"/>
<path d="M0 0 C0.33 0 0.66 0 1 0 C1 2.31 1 4.62 1 7 C1.91523438 7.06058594 2.83046875 7.12117187 3.7734375 7.18359375 C4.96195312 7.26738281 6.15046875 7.35117187 7.375 7.4375 C8.55835938 7.51871094 9.74171875 7.59992187 10.9609375 7.68359375 C14 8 14 8 16 9 C16 9.66 16 10.32 16 11 C13.37461716 10.85946128 10.74982573 10.71281053 8.125 10.5625 C7.37863281 10.52318359 6.63226563 10.48386719 5.86328125 10.44335938 C0.2265625 10.11328125 0.2265625 10.11328125 -2 9 C-2.25 3.375 -2.25 3.375 0 0 Z " fill="#17A27F" transform="translate(455,754)"/>
<path d="M0 0 C0.66 0 1.32 0 2 0 C1.18210877 5.8043894 -3.80153582 9.32887914 -8 13 C-10.28298514 14.53769543 -12.54095865 15.74538707 -15 17 C-15.66 17.66 -16.32 18.32 -17 19 C-17 16 -17 16 -15.54711914 14.29833984 C-14.88317139 13.69199707 -14.21922363 13.0856543 -13.53515625 12.4609375 C-12.45911133 11.46707031 -12.45911133 11.46707031 -11.36132812 10.453125 C-10.60271484 9.76734375 -9.84410156 9.0815625 -9.0625 8.375 C-7.93038086 7.33472656 -7.93038086 7.33472656 -6.77539062 6.2734375 C-5.38105687 4.99290138 -3.98363071 3.71571933 -2.58227539 2.44287109 C-1.70674837 1.64448123 -0.83784662 0.83784662 0 0 Z " fill="#1DA482" transform="translate(310,644)"/>
<path d="M0 0 C0.66 0 1.32 0 2 0 C2.66 3.63 3.32 7.26 4 11 C0.7 10.67 -2.6 10.34 -6 10 C-5.18957164 8.51969728 -4.37659652 7.04078858 -3.5625 5.5625 C-2.88380859 4.32693359 -2.88380859 4.32693359 -2.19140625 3.06640625 C-1 1 -1 1 0 0 Z " fill="#EBF7F4" transform="translate(538,243)"/>
<path d="M0 0 C-1.33488128 3.59391114 -2.96022723 6.75490696 -5 10 C-9.875 5.375 -9.875 5.375 -11 2 C-7.17679443 0.57741188 -4.08718695 -0.24042276 0 0 Z " fill="#EEF8F6" transform="translate(705,340)"/>
<path d="M0 0 C1.60355101 3.50776784 2.22036864 6.14354879 2 10 C0.68 10.33 -0.64 10.66 -2 11 C-5 4.375 -5 4.375 -5 1 C-2 0 -2 0 0 0 Z " fill="#ECF7F5" transform="translate(732,407)"/>
<path d="M0 0 C2.55138062 0.87703709 3.75730827 1.65329753 5.3125 3.875 C6.1132654 6.35009306 5.86325845 7.58287634 5 10 C3.68 10 2.36 10 1 10 C-2 4.375 -2 4.375 -2 1 C-1.34 0.67 -0.68 0.34 0 0 Z " fill="#F0F9F7" transform="translate(713,374)"/>
<path d="M0 0 C2.31 1.65 4.62 3.3 7 5 C6.67 6.32 6.34 7.64 6 9 C2 9 2 9 0.515625 7.6875 C-0.65625 6.125 -1.828125 4.5625 -3 3 C-2.01 2.01 -1.02 1.02 0 0 Z " fill="#F1F9F7" transform="translate(674,308)"/>
<path d="M0 0 C3.38489309 -0.38684492 4.7990854 -0.12328851 7.75 1.6875 C10.22184399 4.22800632 10.9074386 5.48266672 11 9 C8.84365964 11.15634036 6.62901288 12.47793991 4 14 C4.99 11.03 5.98 8.06 7 5 C4.525 4.01 4.525 4.01 2 3 C2 2.34 2 1.68 2 1 C1.34 0.67 0.68 0.34 0 0 Z " fill="#27A988" transform="translate(688,647)"/>
<path d="M0 0 C1.9375 0.1875 1.9375 0.1875 4 1 C6.11103658 3.95545121 6.19785783 6.43855901 6 10 C4.35 10 2.7 10 1 10 C0.63883954 8.5225254 0.28624952 7.04295325 -0.0625 5.5625 C-0.25972656 4.73878906 -0.45695313 3.91507812 -0.66015625 3.06640625 C-0.82837891 2.04353516 -0.82837891 2.04353516 -1 1 C-0.67 0.67 -0.34 0.34 0 0 Z " fill="#F0F9F7" transform="translate(738,404)"/>
<path d="M0 0 C2.55138062 0.87703709 3.75730827 1.65329753 5.3125 3.875 C6.1132654 6.35009306 5.86325845 7.58287634 5 10 C3.1875 9.8125 3.1875 9.8125 1 9 C-1.14197494 6.09303401 -2 4.64478912 -2 1 C-1.34 0.67 -0.68 0.34 0 0 Z " fill="#F4FBF9" transform="translate(722,369)"/>
<path d="M0 0 C1.77119803 0.14133499 3.54195287 0.28823208 5.3125 0.4375 C6.29863281 0.51871094 7.28476562 0.59992187 8.30078125 0.68359375 C11 1 11 1 14 2 C14 2.99 14 3.98 14 5 C9.71 4.67 5.42 4.34 1 4 C0.67 2.68 0.34 1.36 0 0 Z " fill="#2FAC8C" transform="translate(461,738)"/>
<path d="M0 0 C0.99 0 1.98 0 3 0 C3 4.62 3 9.24 3 14 C2.01 13.67 1.02 13.34 0 13 C0 8.71 0 4.42 0 0 Z " fill="#24A787" transform="translate(507,741)"/>
<path d="M0 0 C1.65 0 3.3 0 5 0 C5 0.99 5 1.98 5 3 C4.34 3 3.68 3 3 3 C3 5.97 3 8.94 3 12 C2.34 12 1.68 12 1 12 C0.34 11.34 -0.32 10.68 -1 10 C-0.9765625 7.6171875 -0.9765625 7.6171875 -0.625 4.875 C-0.51414062 3.96492187 -0.40328125 3.05484375 -0.2890625 2.1171875 C-0.19367188 1.41851563 -0.09828125 0.71984375 0 0 Z " fill="#19A380" transform="translate(456,738)"/>
<path d="M0 0 C2.64 0.66 5.28 1.32 8 2 C7.67 2.99 7.34 3.98 7 5 C4.36 5 1.72 5 -1 5 C-0.67 3.35 -0.34 1.7 0 0 Z " fill="#29A989" transform="translate(422,728)"/>
<path d="M0 0 C0 0.99 0 1.98 0 3 C-2.64 3.66 -5.28 4.32 -8 5 C-8 4.34 -8 3.68 -8 3 C-8.66 2.67 -9.32 2.34 -10 2 C-3.375 0 -3.375 0 0 0 Z " fill="#29A989" transform="translate(586,750)"/>
<path d="M0 0 C3.625 -0.1875 3.625 -0.1875 7 0 C7 0.99 7 1.98 7 3 C4.03 3 1.06 3 -2 3 C-1.34 2.01 -0.68 1.02 0 0 Z " fill="#23A786" transform="translate(538,749)"/>
<path d="M0 0 C2.1519437 3.22791555 2.20086443 4.28400809 2 8 C1.01 8 0.02 8 -1 8 C-1.33 6.02 -1.66 4.04 -2 2 C-1.34 2 -0.68 2 0 2 C0 1.34 0 0.68 0 0 Z " fill="#31AC8D" transform="translate(529,742)"/>
<path d="M0 0 C1.98 0.66 3.96 1.32 6 2 C6 2.66 6 3.32 6 4 C3.36 4.33 0.72 4.66 -2 5 C-1.125 1.125 -1.125 1.125 0 0 Z " fill="#079C77" transform="translate(296,659)"/>
<path d="M0 0 C2.97 0.495 2.97 0.495 6 1 C5.67 1.99 5.34 2.98 5 4 C2.36 3.67 -0.28 3.34 -3 3 C-2.01 2.67 -1.02 2.34 0 2 C0 1.34 0 0.68 0 0 Z " fill="#2BAA8A" transform="translate(703,659)"/>
<path d="M0 0 C-0.33 0.66 -0.66 1.32 -1 2 C-3.64 2 -6.28 2 -9 2 C-8 0 -8 0 -6.1875 -0.6875 C-3.81180233 -1.02688538 -2.26664171 -0.72856341 0 0 Z " fill="#089C77" transform="translate(529,706)"/>
<path d="M0 0 C0.66 0.33 1.32 0.66 2 1 C-0.36292656 3.52588702 -1.66462511 4.88820837 -5 6 C-4.75 4.125 -4.75 4.125 -4 2 C-2.0625 0.6875 -2.0625 0.6875 0 0 Z " fill="#0A9D78" transform="translate(404,313)"/>
<path d="M0 0 C-0.33 0.99 -0.66 1.98 -1 3 C-2.65 3.33 -4.3 3.66 -6 4 C-6 2.68 -6 1.36 -6 0 C-3 -1 -3 -1 0 0 Z " fill="#27A888" transform="translate(431,303)"/>
</svg>
